<?xml version="1.0" encoding="utf-8"?>
<!-- Generator: Adobe Illustrator 23.0.3, SVG Export Plug-In . SVG Version: 6.00 Build 0)  -->
<svg version="1.1" id="Layer_1" xmlns="http://www.w3.org/2000/svg" xmlns:xlink="http://www.w3.org/1999/xlink" x="0px" y="0px"
	 viewBox="0 0 512 512" style="enable-background:new 0 0 512 512;" xml:space="preserve">
<style type="text/css">
	.st0{fill:#D15573;}
	.st1{fill:#F8E868;}
	.st2{fill:#C21D44;}
	.st3{fill:#E0C938;}
	.st4{fill:#FFFFFF;}
</style>
<path class="st0" d="M50.5,81.3v49.3h235l122.9,122.9v251h52.9V7.5h-52.9v89.4H202V81.3c-5.2-5.2-8.1-8.1-13.2-13.2h-125
	C58.6,73.2,55.7,76.1,50.5,81.3z M333.1,130.6h75.2v75.2L333.1,130.6z"/>
<path class="st1" d="M50.5,134.7v-4.1H202v4.1c0,15.3-12.4,27.7-27.7,27.7h-96C62.9,162.4,50.5,150,50.5,134.7z"/>
<path class="st2" d="M461.3,504.5h-30V7.5h30V504.5z"/>
<path class="st3" d="M144.2,162.4h30c15.3,0,27.7-12.4,27.7-27.7v-4.1h-30v4.1C172,150,159.5,162.4,144.2,162.4z"/>
<path class="st4" d="M106.2,92.6h15v15h-15V92.6z M131.2,92.6h15v15h-15V92.6z"/>
<path d="M43,78.2v59.9h0.2c1.7,17.8,16.8,31.8,35.1,31.8h96c18.3,0,33.3-14,35.1-31.8h73.1l118.5,118.5V512h67.9V350.6h-15V497
	h-37.9V250.4L288.6,123.1H58V84.4l8.8-8.8h68.5v-15H60.6L43,78.2z M58.3,138.1h135.9c-1.6,9.5-10,16.8-19.9,16.8h-96
	C68.2,154.9,59.9,147.6,58.3,138.1z"/>
<path d="M415.9,123.1H315l100.8,100.8V123.1z M400.9,187.7l-49.6-49.6h49.6V187.7z"/>
<path d="M453.8,330.6h15V0l-67.9,0v89.4H209.5V78.2l-17.6-17.6h-36.5v15h30.3l8.8,8.8v20h221.4V15h37.9V330.6z"/>
<path d="M133.7,255.1h-15v-51.4h15V255.1z"/>
<path d="M188.6,232.4l-36.4-36.4l10.6-10.6l36.4,36.4L188.6,232.4z"/>
<path d="M63.9,232.4l-10.6-10.6l36.4-36.4l10.6,10.6L63.9,232.4z"/>
</svg>
