<?xml version="1.0" encoding="utf-8"?>
<!-- Generator: Adobe Illustrator 23.0.3, SVG Export Plug-In . SVG Version: 6.00 Build 0)  -->
<svg version="1.1" id="Layer_1" xmlns="http://www.w3.org/2000/svg" xmlns:xlink="http://www.w3.org/1999/xlink" x="0px" y="0px"
	 viewBox="0 0 512 512" style="enable-background:new 0 0 512 512;" xml:space="preserve">
<style type="text/css">
	.st0{fill:url(#SVGID_1_);}
	.st1{fill:url(#SVGID_2_);}
	.st2{fill:#FFFFFF;}
	.st3{fill:url(#SVGID_3_);}
	.st4{fill:url(#SVGID_4_);}
</style>
<g id="Water">
	
		<linearGradient id="SVGID_1_" gradientUnits="userSpaceOnUse" x1="187.885" y1="339.195" x2="187.885" y2="279.726" gradientTransform="matrix(8 0 0 -8 -1267 2829)">
		<stop  offset="0" style="stop-color:#00C6FF"/>
		<stop  offset="1" style="stop-color:#0072FF"/>
	</linearGradient>
	<path class="st0" d="M236.1,512c-101.6-0.1-184-82.5-184.1-184.1c0-116,104.5-255.2,175.7-324.5c4.7-4.5,12.1-4.5,16.7,0
		c29.1,29.4,56,60.9,80.4,94.2c2.4,3.3,3,7.6,1.5,11.4c-23.7,62,19.4,95.5,53.8,93.8c4.9-0.2,9.5,2.6,11.5,7.1
		c17.6,36.9,27.3,77.1,28.5,118C420,429.5,337.7,511.9,236.1,512L236.1,512z"/>
	
		<linearGradient id="SVGID_2_" gradientUnits="userSpaceOnUse" x1="185.5012" y1="361.708" x2="188.8212" y2="293.378" gradientTransform="matrix(8 0 0 -8 -1267 2829)">
		<stop  offset="0" style="stop-color:#00C6FF"/>
		<stop  offset="1" style="stop-color:#0072FF"/>
	</linearGradient>
	<path class="st1" d="M416,285.2c-5.7,101.5-92.5,179.2-194,173.5c-82.4-4.6-151.7-63.5-169.5-144.2c-0.3,4.5-0.5,8.9-0.5,13.4
		C52,429.6,134.4,512,236.1,512s184.1-82.4,184.1-184.1C420.1,313.6,418.7,299.3,416,285.2z"/>
	<g>
		<path class="st2" d="M119.9,220.5c-4-1.9-5.6-6.7-3.7-10.7c15.3-31,33.1-60.7,53.4-88.7c2.4-3.7,7.4-4.7,11.1-2.3
			s4.7,7.4,2.3,11.1c-0.1,0.2-0.2,0.3-0.3,0.5c-19.7,27.3-37.1,56.2-52,86.4C128.7,220.7,123.9,222.4,119.9,220.5
			C119.9,220.5,119.9,220.5,119.9,220.5L119.9,220.5z"/>
		<path class="st2" d="M101.1,269.8c-4.2-1.4-6.5-5.9-5.2-10.1c2.2-6.9,4.8-14.1,7.6-21.2c1.6-4.1,6.2-6.2,10.3-4.6
			c4.1,1.6,6.2,6.2,4.6,10.3c0,0.1-0.1,0.2-0.1,0.2c-2.7,6.8-5.1,13.6-7.3,20.2C109.8,268.9,105.3,271.2,101.1,269.8z"/>
		<path class="st2" d="M366.2,397.7c-4.4,0-8-3.6-8-8c0-1.2,0.3-2.3,0.8-3.4c8.7-18.2,13.2-38.2,13.2-58.3c0-4.4,3.6-8,8-8
			s8,3.6,8,8c0.1,22.6-5,44.9-14.7,65.2C372.1,395.9,369.3,397.7,366.2,397.7z"/>
	</g>
	
		<linearGradient id="SVGID_3_" gradientUnits="userSpaceOnUse" x1="205.4706" y1="371.35" x2="205.4706" y2="327.727" gradientTransform="matrix(8 0 0 -8 -1267 2829)">
		<stop  offset="0" style="stop-color:#00C6FF"/>
		<stop  offset="1" style="stop-color:#0072FF"/>
	</linearGradient>
	<path class="st3" d="M376.7,226.8c-45.9-0.1-83.2-37.3-83.2-83.3c0-49,42-107.4,74.9-139.4c4.7-4.5,12-4.5,16.7,0
		c3,3,74.9,73.7,74.9,139.4c0.2,45.8-36.8,83.1-82.6,83.3C377.2,226.8,377,226.8,376.7,226.8L376.7,226.8z"/>
	
		<linearGradient id="SVGID_4_" gradientUnits="userSpaceOnUse" x1="198.3088" y1="368.2024" x2="203.9008" y2="342.8624" gradientTransform="matrix(8 0 0 -8 -1267 2829)">
		<stop  offset="0" style="stop-color:#00C6FF"/>
		<stop  offset="1" style="stop-color:#0072FF"/>
	</linearGradient>
	<path class="st4" d="M445.7,87.9c1.6,7.2,2.5,14.5,2.6,21.9c0,46-37.3,83.2-83.2,83.2c-28.9,0-55.8-15.1-70.9-39.7
		c5.1,45.7,46.3,78.5,92,73.4c42.3-4.7,74.2-40.6,73.9-83.1C459.3,124.2,454.4,105.2,445.7,87.9z"/>
	<path class="st2" d="M356.5,70c-3.5-2.7-4.3-7.7-1.6-11.2l0,0c2.4-3.3,5-6.5,7.5-9.6c2.8-3.4,7.8-3.9,11.3-1.1
		c3.4,2.8,3.9,7.8,1.1,11.3c-2.4,3-4.8,6-7.1,9.1C365.1,71.9,360.1,72.6,356.5,70z"/>
	<path class="st2" d="M325.5,151.5c-4.4,0-8-3.6-8-8c0-19.5,10.3-41.7,19-56.9c2.1-3.9,7-5.3,10.9-3.2c3.9,2.1,5.3,7,3.2,10.9
		c-0.1,0.1-0.1,0.2-0.2,0.3c-9.5,14.7-15.3,31.5-16.9,48.9C333.5,147.9,329.9,151.5,325.5,151.5z"/>
</g>
</svg>
