<?xml version="1.0" encoding="utf-8"?>
<!-- Generator: Adobe Illustrator 23.0.3, SVG Export Plug-In . SVG Version: 6.00 Build 0)  -->
<svg version="1.1" id="Layer_1" xmlns="http://www.w3.org/2000/svg" xmlns:xlink="http://www.w3.org/1999/xlink" x="0px" y="0px"
	 viewBox="0 0 512 512" style="enable-background:new 0 0 512 512;" xml:space="preserve">
<style type="text/css">
	.st0{fill:#76FFD9;}
	.st1{fill:#5DE0BF;}
	.st2{fill:#00C395;}
	.st3{fill:#FFC843;}
	.st4{fill:#CE2E2E;}
	.st5{fill:#FFFFFF;}
	.st6{fill:#E1EAF8;}
	.st7{fill:#434C54;}
</style>
<path class="st0" d="M105.1,137h113.1v179.6H105.1V137z"/>
<path class="st1" d="M165.6,137h52.7v179.6h-52.7V137z"/>
<path class="st1" d="M105.1,287h113.1v29.7H105.1V287z"/>
<path class="st1" d="M324.2,113.1h73v172.8h-73V113.1z"/>
<path class="st2" d="M324.2,113.1h22.2v172.8h-22.2V113.1z"/>
<path class="st0" d="M306.2,143.9h109.1v172.8H306.2V143.9z"/>
<path class="st1" d="M306.2,143.9h40.2v172.8h-40.2V143.9z"/>
<path class="st1" d="M306.2,287h109.1v29.7H306.2V287z"/>
<path class="st3" d="M180.6,14.5h150.9v302.2H180.6V14.5z"/>
<path class="st4" d="M180.6,287h150.9v29.7H180.6V287z"/>
<path class="st5" d="M414.7,357.8c-6.5,28.1-104.2,5.7-149.5,38.2c-38.6,27.7-116.9,27.6-116.9,27.6l-1.9,6.1l-15.5,50.4L26.8,463
	c0,0,4.3-14.3,11.5-33.4c11.8-31.6,31.3-76.2,51.4-90.2c31.7-22.2,145-3.2,217.7-5.8C380.1,330.9,421.6,327.9,414.7,357.8z"/>
<path class="st6" d="M146.4,429.7l-15.5,50.4L26.8,463c0,0,4.3-14.3,11.5-33.4H146.4z"/>
<path class="st0" d="M7.5,448.4H176v49.8H7.5V448.4z"/>
<path class="st1" d="M7.5,478.4H176v19.7H7.5V478.4z"/>
<path class="st0" d="M491,335h-458c-7.5,0-13.5-6-13.5-13.5s6-13.5,13.5-13.5h458c7.5,0,13.5,6,13.5,13.5
	C504.5,328.9,498.5,335,491,335z"/>
<path class="st5" d="M197.5,363.2c0,0,45.4-24.2,84.4-23.7c36.2,0.5,41.3-45.9-25.9-37.7c-79.8,9.8-149.3,18.8-174.1,44.3"/>
<path class="st7" d="M188.1,61.5V22h135.9v23.9c0,4.1,3.4,7.5,7.5,7.5s7.5-3.4,7.5-7.5V14.5c0-4.1-3.4-7.5-7.5-7.5H180.6
	c-4.1,0-7.5,3.4-7.5,7.5v47H188.1z"/>
<path class="st7" d="M491,300.5h-68.2V143.9c0-4.1-3.4-7.5-7.5-7.5h-10.5v-23.3c0-4.1-3.4-7.5-7.5-7.5h-58.3V79.4
	c0-4.1-3.4-7.5-7.5-7.5s-7.5,3.4-7.5,7.5v221h-21.2c-8.5-5.1-23-9.1-47.6-6.1c-16.3,2-32.3,4-47.8,6.1h-19.3V68.6h-15v60.9h-20.5
	v-13.2c0.8-1.2,1.3-2.7,1.3-4.3s-0.5-3.1-1.3-4.3v-8.1c0-4.1-3.4-7.5-7.5-7.5c-4.1,0-7.5,3.4-7.5,7.5v4.8h-4V66.2
	c0-4.1-3.4-7.5-7.5-7.5c-4.1,0-7.5,3.4-7.5,7.5v38.4H111c-4.1,0-7.5,3.4-7.5,7.5s3.4,7.5,7.5,7.5h7.5v10h-13.4
	c-4.1,0-7.5,3.4-7.5,7.5v114.9c0,4.1,3.4,7.5,7.5,7.5c4.1,0,7.5-3.4,7.5-7.5V144.5H126h0h0h19h0h0h28v155.9h-60.4v-15
	c0-4.1-3.4-7.5-7.5-7.5c-4.1,0-7.5,3.4-7.5,7.5v15H33.1c-5.6,0-10.9,2.2-14.8,6.1c-4,4-6.2,9.2-6.2,14.9c0,11.6,9.4,21,21,21h42.3
	c-20.5,23-38.9,69.2-49.1,98.5H7.5c-4.1,0-7.5,3.4-7.5,7.5v49.8c0,4.1,3.4,7.5,7.5,7.5H176c4.1,0,7.5-3.4,7.5-7.5v-49.8
	c0-4.1-3.4-7.5-7.5-7.5h-25.3l3.1-10c19.1-0.5,81.4-4.2,115.7-28.9c10.3-7.4,25.1-12.5,45.1-15.5c4.1-0.6,6.9-4.4,6.3-8.5
	c-0.6-4.1-4.5-6.9-8.5-6.3c-22.8,3.5-39.2,9.2-51.6,18.2C224.8,415.8,149.1,416,148.3,416c0,0,0,0,0,0c-3.3,0-6.2,2.1-7.2,5.3
	l-6,19.6H42.1c9.5-26.5,27.7-71.9,46.6-90.9c19.2-17.9,66.8-27.3,119.9-34.6c0.3,0,0.6-0.1,0.9-0.1c15.5-2.1,31.5-4.1,47.4-6
	c20.4-2.5,33,0.4,39.1,4.7c0.1,0.1,0.2,0.1,0.3,0.2c1.3,0.9,2.3,1.9,3,3c1.6,2.3,1.7,4.7,0.4,7.1c-1.9,3.6-7.7,7.8-17.7,7.7
	c-40.5-0.5-86.1,23.6-88.1,24.6c-3.7,1.9-5,6.5-3.1,10.1c1.4,2.5,3.9,4,6.6,4c1.2,0,2.4-0.3,3.5-0.9c0.4-0.2,43.3-22.8,79.6-22.8
	c0.4,0,0.8,0,1.2,0c7.4,0.1,14.3-1.6,19.8-4.6c0.3,0,0.6,0.1,0.9,0.1h94.9c10.4,2.8,11.5,6.7,9.9,13.6c-1.9,8.4-28.5,10.1-51.9,11.6
	c-3.2,0.2-6.4,0.4-9.6,0.6c-4.1,0.3-7.3,3.9-7,8c0.3,4,3.6,7,7.5,7c0.2,0,0.3,0,0.5,0c3.2-0.2,6.4-0.4,9.6-0.6
	c15.2-1,29.6-1.9,40.7-4.4c5.4-1.2,21.7-4.9,24.9-18.8c1.2-5.4,1.5-11.5-0.9-17H491c5.6,0,10.9-2.2,14.9-6.2c4-4,6.1-9.2,6.1-14.8
	C512,309.9,502.6,300.5,491,300.5z M137.5,129.5h-4v-10h4V129.5z M140.5,455.9C140.6,455.9,140.6,455.9,140.5,455.9
	c0.1,0,0.1,0,0.1,0h27.8v34.8H15v-34.8h16.5c0,0,0,0,0.1,0c0,0,0,0,0.1,0H140.5z M95.7,327.5H33.1c-3.3,0-6-2.7-6-6
	c0-1.6,0.6-3.1,1.8-4.2c1.1-1.1,2.6-1.8,4.2-1.8h94.8C115.6,318.9,104.8,322.8,95.7,327.5z M338.9,120.6h50.8v15.8h-50.8V120.6z
	 M338.9,151.4h68.9v149.1h-68.9V151.4z M495.3,325.7c-1.1,1.1-2.7,1.8-4.3,1.8H314.6c1.2-3.9,1.3-8.1,0.3-12H491c3.3,0,6,2.7,6,6
	C497,323.1,496.4,324.6,495.3,325.7z"/>
<g>
	<path class="st5" d="M235,110.4h-17.5c-4.1,0-7.5,3.4-7.5,7.5c0,4.1,3.4,7.5,7.5,7.5H235c4.1,0,7.5-3.4,7.5-7.5
		C242.5,113.8,239.1,110.4,235,110.4z"/>
	<path class="st5" d="M294.5,110.4H277c-4.1,0-7.5,3.4-7.5,7.5c0,4.1,3.4,7.5,7.5,7.5h17.5c4.1,0,7.5-3.4,7.5-7.5
		C302,113.8,298.7,110.4,294.5,110.4z"/>
	<path class="st5" d="M235,142.1h-17.5c-4.1,0-7.5,3.4-7.5,7.5c0,4.1,3.4,7.5,7.5,7.5H235c4.1,0,7.5-3.4,7.5-7.5
		C242.5,145.5,239.1,142.1,235,142.1z"/>
	<path class="st5" d="M294.5,142.1H277c-4.1,0-7.5,3.4-7.5,7.5c0,4.1,3.4,7.5,7.5,7.5h17.5c4.1,0,7.5-3.4,7.5-7.5
		C302,145.5,298.7,142.1,294.5,142.1z"/>
	<path class="st5" d="M235,173.8h-17.5c-4.1,0-7.5,3.4-7.5,7.5c0,4.1,3.4,7.5,7.5,7.5H235c4.1,0,7.5-3.4,7.5-7.5
		C242.5,177.1,239.1,173.8,235,173.8z"/>
	<path class="st5" d="M294.5,173.8H277c-4.1,0-7.5,3.4-7.5,7.5c0,4.1,3.4,7.5,7.5,7.5h17.5c4.1,0,7.5-3.4,7.5-7.5
		C302,177.1,298.7,173.8,294.5,173.8z"/>
	<path class="st5" d="M235,205.5h-17.5c-4.1,0-7.5,3.4-7.5,7.5c0,4.1,3.4,7.5,7.5,7.5H235c4.1,0,7.5-3.4,7.5-7.5
		C242.5,208.8,239.1,205.5,235,205.5z"/>
	<path class="st5" d="M294.5,205.5H277c-4.1,0-7.5,3.4-7.5,7.5c0,4.1,3.4,7.5,7.5,7.5h17.5c4.1,0,7.5-3.4,7.5-7.5
		C302,208.8,298.7,205.5,294.5,205.5z"/>
	<path class="st5" d="M235,237.1h-17.5c-4.1,0-7.5,3.4-7.5,7.5s3.4,7.5,7.5,7.5H235c4.1,0,7.5-3.4,7.5-7.5S239.1,237.1,235,237.1z"
		/>
	<path class="st5" d="M294.5,237.1H277c-4.1,0-7.5,3.4-7.5,7.5s3.4,7.5,7.5,7.5h17.5c4.1,0,7.5-3.4,7.5-7.5S298.7,237.1,294.5,237.1
		z"/>
	<path class="st5" d="M382.6,166H361c-4.1,0-7.5,3.4-7.5,7.5s3.4,7.5,7.5,7.5h21.6c4.1,0,7.5-3.4,7.5-7.5S386.8,166,382.6,166z"/>
	<path class="st5" d="M382.6,192H361c-4.1,0-7.5,3.4-7.5,7.5s3.4,7.5,7.5,7.5h21.6c4.1,0,7.5-3.4,7.5-7.5S386.8,192,382.6,192z"/>
	<path class="st5" d="M382.6,218H361c-4.1,0-7.5,3.4-7.5,7.5s3.4,7.5,7.5,7.5h21.6c4.1,0,7.5-3.4,7.5-7.5S386.8,218,382.6,218z"/>
	<path class="st5" d="M382.6,244H361c-4.1,0-7.5,3.4-7.5,7.5s3.4,7.5,7.5,7.5h21.6c4.1,0,7.5-3.4,7.5-7.5S386.8,244,382.6,244z"/>
	<path class="st5" d="M134.2,181h21.6c4.1,0,7.5-3.4,7.5-7.5s-3.4-7.5-7.5-7.5h-21.6c-4.1,0-7.5,3.4-7.5,7.5S130.1,181,134.2,181z"
		/>
	<path class="st5" d="M134.2,207h21.6c4.1,0,7.5-3.4,7.5-7.5s-3.4-7.5-7.5-7.5h-21.6c-4.1,0-7.5,3.4-7.5,7.5S130.1,207,134.2,207z"
		/>
	<path class="st5" d="M134.2,233h21.6c4.1,0,7.5-3.4,7.5-7.5s-3.4-7.5-7.5-7.5h-21.6c-4.1,0-7.5,3.4-7.5,7.5S130.1,233,134.2,233z"
		/>
	<path class="st5" d="M134.2,259h21.6c4.1,0,7.5-3.4,7.5-7.5s-3.4-7.5-7.5-7.5h-21.6c-4.1,0-7.5,3.4-7.5,7.5S130.1,259,134.2,259z"
		/>
</g>
<path class="st0" d="M170,47.1h122v32.4H170V47.1z"/>
</svg>
