<?xml version="1.0" encoding="iso-8859-1"?>
<!-- Generator: Adobe Illustrator 19.0.0, SVG Export Plug-In . SVG Version: 6.00 Build 0)  -->
<svg version="1.1" id="Capa_1" xmlns="http://www.w3.org/2000/svg" xmlns:xlink="http://www.w3.org/1999/xlink" x="0px" y="0px"
	 viewBox="0 0 512 512" style="enable-background:new 0 0 512 512;" xml:space="preserve">
<path style="fill:#455A64;" d="M490.667,256H21.333c-5.891,0-10.667,4.776-10.667,10.667c0,5.891,4.776,10.667,10.667,10.667
	h469.333c5.891,0,10.667-4.776,10.667-10.667C501.333,260.776,496.558,256,490.667,256z"/>
<path style="fill:#2196F3;" d="M64,128h85.333c5.891,0,10.667,4.776,10.667,10.667V224c0,5.891-4.776,10.667-10.667,10.667H64
	c-5.891,0-10.667-4.776-10.667-10.667v-85.333C53.333,132.776,58.109,128,64,128z"/>
<path style="fill:#FFC107;" d="M213.333,0h85.333c5.891,0,10.667,4.776,10.667,10.667V224c0,5.891-4.776,10.667-10.667,10.667
	h-85.333c-5.891,0-10.667-4.776-10.667-10.667V10.667C202.667,4.776,207.442,0,213.333,0z"/>
<path style="fill:#4CAF50;" d="M362.667,42.667H448c5.891,0,10.667,4.776,10.667,10.667V224c0,5.891-4.776,10.667-10.667,10.667
	h-85.333c-5.891,0-10.667-4.776-10.667-10.667V53.333C352,47.442,356.776,42.667,362.667,42.667z"/>
<path style="fill:#FFC107;" d="M213.333,298.667h85.333c5.891,0,10.667,4.776,10.667,10.667v85.333
	c0,5.891-4.776,10.667-10.667,10.667h-85.333c-5.891,0-10.667-4.776-10.667-10.667v-85.333
	C202.667,303.442,207.442,298.667,213.333,298.667z"/>
<path style="fill:#2196F3;" d="M64,298.667h85.333c5.891,0,10.667,4.776,10.667,10.667v192c0,5.891-4.776,10.667-10.667,10.667H64
	c-5.891,0-10.667-4.776-10.667-10.667v-192C53.333,303.442,58.109,298.667,64,298.667z"/>
<path style="fill:#4CAF50;" d="M362.667,298.667H448c5.891,0,10.667,4.776,10.667,10.667v128c0,5.891-4.776,10.667-10.667,10.667
	h-85.333c-5.891,0-10.667-4.776-10.667-10.667v-128C352,303.442,356.776,298.667,362.667,298.667z"/>
<g>
</g>
<g>
</g>
<g>
</g>
<g>
</g>
<g>
</g>
<g>
</g>
<g>
</g>
<g>
</g>
<g>
</g>
<g>
</g>
<g>
</g>
<g>
</g>
<g>
</g>
<g>
</g>
<g>
</g>
</svg>
