<?xml version="1.0" encoding="utf-8"?>
<!-- Generator: Adobe Illustrator 23.0.3, SVG Export Plug-In . SVG Version: 6.00 Build 0)  -->
<svg version="1.1" id="Layer_1" xmlns="http://www.w3.org/2000/svg" xmlns:xlink="http://www.w3.org/1999/xlink" x="0px" y="0px"
	 viewBox="0 0 512 512" style="enable-background:new 0 0 512 512;" xml:space="preserve">
<style type="text/css">
	.st0{fill:#FFFFFF;}
</style>
<path class="st0" d="M480,426.7H32c-17.7,0-32-14.3-32-32v-320c0-17.7,14.3-32,32-32h160V64H32c-5.9,0-10.7,4.8-10.7,10.7v320
	c0,5.9,4.8,10.7,10.7,10.7h448c5.9,0,10.7-4.8,10.7-10.7V288H512v106.7C512,412.3,497.7,426.7,480,426.7z"/>
<path class="st0" d="M373.3,512H138.7c-5.9,0-10.7-4.8-10.7-10.7v-42.7c0-5.9,4.8-10.7,10.7-10.7h234.7c5.9,0,10.7,4.8,10.7,10.7
	v42.7C384,507.2,379.2,512,373.3,512z M149.3,490.7h213.3v-21.3H149.3V490.7z"/>
<path class="st0" d="M170.7,416H192v42.7h-21.3V416z"/>
<path class="st0" d="M320,416h21.3v42.7H320V416z"/>
<path class="st0" d="M437.3,384H74.7c-17.7,0-32-14.3-32-32V117.3c0-17.7,14.3-32,32-32H192v21.3H74.7c-5.9,0-10.7,4.8-10.7,10.7
	V352c0,5.9,4.8,10.7,10.7,10.7h362.7c5.9,0,10.7-4.8,10.7-10.7v-64h21.3v64C469.3,369.7,455,384,437.3,384z"/>
<path class="st0" d="M362.7,298.7h-192c-4.3,0-8.2-2.6-9.9-6.6c-1.6-4-0.7-8.6,2.3-11.6l50.2-50.2v-80.9C213.3,66.9,280.2,0,362.7,0
	C445.1,0,512,66.9,512,149.3C512,231.8,445.1,298.7,362.7,298.7z M196.4,277.3h166.3c70.7,0,128-57.3,128-128
	c0-70.7-57.3-128-128-128c-70.7,0-128,57.3-128,128v85.3c0,2.8-1.1,5.5-3.1,7.5L196.4,277.3z"/>
<path class="st0" d="M373.3,213.3H352v-74.7h-21.3v-21.3h32c5.9,0,10.7,4.8,10.7,10.7V213.3z"/>
<path class="st0" d="M330.7,202.7h64V224h-64V202.7z"/>
<path class="st0" d="M352,74.7h21.3V96H352V74.7z"/>
<path class="st0" d="M106.7,181.3H85.3V160c0-17.7,14.3-32,32-32h21.3v21.3h-21.3c-5.9,0-10.7,4.8-10.7,10.7V181.3z"/>
<path class="st0" d="M85.3,202.7h21.3V224H85.3V202.7z"/>
</svg>
