<?xml version="1.0" encoding="utf-8"?>
<!-- Generator: Adobe Illustrator 23.0.3, SVG Export Plug-In . SVG Version: 6.00 Build 0)  -->
<svg version="1.1" id="Layer_1" xmlns="http://www.w3.org/2000/svg" xmlns:xlink="http://www.w3.org/1999/xlink" x="0px" y="0px"
	 viewBox="0 0 512 512" style="enable-background:new 0 0 512 512;" xml:space="preserve">
<style type="text/css">
	.st0{fill:#FFFFFF;}
</style>
<path class="st0" d="M235.8,489h40c4.1,0,7.5-3.4,7.5-7.5s-3.4-7.5-7.5-7.5h-40c-4.1,0-7.5,3.4-7.5,7.5S231.7,489,235.8,489z"/>
<path class="st0" d="M471.5,374.5h-39.2v-15.7c20.4-3.6,36-21.4,36-42.8c0-24-19.5-43.5-43.5-43.5c-7,0-13.6,1.7-19.5,4.6v-0.6
	c0-4.1-3.4-7.5-7.5-7.5c-4.1,0-7.5,3.4-7.5,7.5v13.1c-5.6,7.3-9,16.5-9,26.4s3.4,19.1,9,26.4v32.1h-37V164.1
	c10.6,7.2,23.3,11.5,37,11.8v68.3c0,4.1,3.4,7.5,7.5,7.5c4.1,0,7.5-3.4,7.5-7.5v-69.5c32.4-6.1,57-34.6,57-68.8s-24.6-62.7-57-68.8
	C405.2,16.7,388.4,0,367.8,0h-224c-20.7,0-37.5,16.8-37.5,37.5v90c0,4.1,3.4,7.5,7.5,7.5c4.1,0,7.5-3.4,7.5-7.5v-90
	c0-12.4,10.1-22.5,22.5-22.5h32.5v16.5c0,11.9,9.6,21.5,21.5,21.5h116c11.9,0,21.5-9.6,21.5-21.5V15h32.5c11.9,0,21.7,9.3,22.4,21.1
	c-37.6,1.1-67.9,32-67.9,69.9c0,2.9,0.2,5.7,0.5,8.5H218.5l6.8-6.6c3.7-3.5,5-8.7,3.4-13.6c-1.6-4.9-5.7-8.3-10.8-9.1l-16.7-2.4
	l-7.5-15c-2.3-4.5-6.8-7.4-11.9-7.4s-9.7,2.8-11.9,7.4l-7.5,15l-16.7,2.4c-5.1,0.7-9.2,4.2-10.8,9.1c-1.6,4.8-0.3,10,3.4,13.6
	l12,11.6l-2.8,16.4c-0.9,5,1.1,10,5.3,12.9c1.7,1.2,3.6,2,5.5,2.4v223.2h-37v-32.1c5.6-7.3,9-16.5,9-26.4s-3.4-19.1-9-26.4v-130
	c0-4.1-3.4-7.5-7.5-7.5s-7.5,3.4-7.5,7.5v117.6c-5.9-3-12.5-4.6-19.5-4.6c-24,0-43.5,19.5-43.5,43.5c0,21.4,15.6,39.3,36,42.8v15.7
	H39.5c-4.1,0-7.5,3.4-7.5,7.5s3.4,7.5,7.5,7.5h66.8v85c0,20.7,16.8,37.5,37.5,37.5h224c20.7,0,37.5-16.8,37.5-37.5v-85h66.2
	c4.1,0,7.5-3.4,7.5-7.5S475.6,374.5,471.5,374.5z M320.3,31.5c0,3.6-2.9,6.5-6.5,6.5h-116c-3.6,0-6.5-2.9-6.5-6.5V15h129V31.5z
	 M453.3,316c0,15.7-12.8,28.5-28.5,28.5s-28.5-12.8-28.5-28.5s12.8-28.5,28.5-28.5S453.3,300.3,453.3,316z M392.3,51
	c30.3,0,55,24.7,55,55s-24.7,55-55,55c-30.3,0-55-24.7-55-55S362,51,392.3,51z M151.4,99.6l14.1-2c4.3-0.6,8.1-3.3,10-7.2l6.4-12.8
	l6.4,12.8c1.9,3.9,5.7,6.6,10,7.2l14.1,2l-10.1,9.8c-3.2,3.1-4.6,7.5-3.8,11.8l0.4,2.1c0,0.1,0,0.2,0,0.2l2,11.5l-12.7-6.6
	c-3.9-2-8.5-2-12.3,0l-12.7,6.6l2.4-13.9c0.7-4.3-0.7-8.7-3.9-11.8L151.4,99.6z M173.3,146.6l8.5-4.4l15,7.8c4.5,2.4,9.9,2,14-1.1
	c4.1-3,6.1-8,5.2-12.9l-1.1-6.5h111.4c2.8,7.7,6.8,14.8,11.9,21v224h-165V146.6z M58.3,316c0-15.7,12.8-28.5,28.5-28.5
	s28.5,12.8,28.5,28.5s-12.8,28.5-28.5,28.5S58.3,331.7,58.3,316z M94.3,374.5v-15.7c4.2-0.7,8.3-2.1,12-4v19.6H94.3z M390.3,451H192
	c-4.1,0-7.5,3.4-7.5,7.5s3.4,7.5,7.5,7.5h198.4v8.5c0,12.4-10.1,22.5-22.5,22.5h-224c-12.4,0-22.5-10.1-22.5-22.5V466h38.5
	c4.1,0,7.5-3.4,7.5-7.5s-3.4-7.5-7.5-7.5h-38.5v-61.5h269V451z M405.3,354.9c3.7,1.9,7.8,3.2,12,4v15.7h-12V354.9z"/>
<path class="st0" d="M235.8,153.5h-40c-4.1,0-7.5,3.4-7.5,7.5v40c0,4.1,3.4,7.5,7.5,7.5h40c4.1,0,7.5-3.4,7.5-7.5v-40
	C243.3,156.9,240,153.5,235.8,153.5z M228.3,193.5h-25v-25h25V193.5z"/>
<path class="st0" d="M315.8,153.5h-40c-4.1,0-7.5,3.4-7.5,7.5v40c0,4.1,3.4,7.5,7.5,7.5h40c4.1,0,7.5-3.4,7.5-7.5v-40
	C323.3,156.9,320,153.5,315.8,153.5z M308.3,193.5h-25v-25h25V193.5z"/>
<path class="st0" d="M235.8,231.5h-40c-4.1,0-7.5,3.4-7.5,7.5v40c0,4.1,3.4,7.5,7.5,7.5h40c4.1,0,7.5-3.4,7.5-7.5v-40
	C243.3,234.9,240,231.5,235.8,231.5z M228.3,271.5h-25v-25h25V271.5z"/>
<path class="st0" d="M315.8,231.5h-40c-4.1,0-7.5,3.4-7.5,7.5v40c0,4.1,3.4,7.5,7.5,7.5h40c4.1,0,7.5-3.4,7.5-7.5v-40
	C323.3,234.9,320,231.5,315.8,231.5z M308.3,271.5h-25v-25h25V271.5z"/>
<path class="st0" d="M235.8,308.5h-40c-4.1,0-7.5,3.4-7.5,7.5v40c0,4.1,3.4,7.5,7.5,7.5h40c4.1,0,7.5-3.4,7.5-7.5v-40
	C243.3,311.9,240,308.5,235.8,308.5z M228.3,348.5h-25v-25h25V348.5z"/>
<path class="st0" d="M315.8,308.5h-40c-4.1,0-7.5,3.4-7.5,7.5v40c0,4.1,3.4,7.5,7.5,7.5h40c4.1,0,7.5-3.4,7.5-7.5v-40
	C323.3,311.9,320,308.5,315.8,308.5z M308.3,348.5h-25v-25h25V348.5z"/>
<path class="st0" d="M387.3,135.5c2,0,4-0.8,5.5-2.4l35.9-38.7c2.8-3,2.6-7.8-0.4-10.6c-3-2.8-7.8-2.6-10.6,0.4l-31.6,34l-24.5-16.2
	c-3.5-2.3-8.1-1.3-10.4,2.1c-2.3,3.5-1.3,8.1,2.1,10.4l29.8,19.7C384.4,135.1,385.8,135.5,387.3,135.5z"/>
</svg>
