<?xml version="1.0" encoding="utf-8"?>
<!-- Generator: Adobe Illustrator 23.0.3, SVG Export Plug-In . SVG Version: 6.00 Build 0)  -->
<svg version="1.1" id="Layer_1" xmlns="http://www.w3.org/2000/svg" xmlns:xlink="http://www.w3.org/1999/xlink" x="0px" y="0px"
	 viewBox="0 0 512 512" style="enable-background:new 0 0 512 512;" xml:space="preserve">
<style type="text/css">
	.st0{fill:#FFFFFF;}
</style>
<g>
	<g>
		<g>
			<g>
				<path class="st0" d="M204.7,305.6c0-1.5,1.4-2.8,3.4-2.8h12.2c7.8,0,13.9,3.7,13.9,13.6v0.3c0,9.9-6.4,13.7-14.5,13.7h-5.8v12.7
					c0,1.9-2.3,2.8-4.6,2.8s-4.6-0.9-4.6-2.8L204.7,305.6L204.7,305.6z M213.9,310.8v12.5h5.8c3.3,0,5.3-1.9,5.3-5.9v-0.6
					c0-4-2-5.9-5.3-5.9L213.9,310.8L213.9,310.8z"/>
				<path class="st0" d="M237.1,342.1c0-0.2,0.1-0.4,0.1-0.6l11-36c0.6-2.1,3.3-3.1,6-3.1s5.4,1,6,3.1l11,36
					c0.1,0.2,0.1,0.5,0.1,0.6c0,2.2-3.4,3.8-5.9,3.8c-1.5,0-2.7-0.5-3-1.7l-2-7.4H248l-2,7.4c-0.4,1.2-1.5,1.7-3,1.7
					C240.4,345.9,237.1,344.3,237.1,342.1z M258.5,329.7l-4.3-15.8l-4.3,15.8H258.5z"/>
				<path class="st0" d="M284.5,328.3c0-0.4-0.1-0.6-0.2-0.8l-12.2-20.2c-0.1-0.2-0.1-0.5-0.1-0.6c0-2.2,3.7-3.8,6.3-3.8
					c1.5,0,2,0.6,2.7,1.7l8.3,15.2l8.2-15.2c0.6-1.1,1.2-1.7,2.7-1.7c2.5,0,6.3,1.6,6.3,3.8c0,0.2,0,0.4-0.1,0.6L294,327.4
					c-0.1,0.2-0.2,0.5-0.2,0.8v14.8c0,1.9-2.3,2.8-4.6,2.8s-4.6-0.9-4.6-2.8V328.3z"/>
			</g>
		</g>
	</g>
	<g>
		<path class="st0" d="M303.6,105.3h-95.1c-4.1,0-7.5,3.4-7.5,7.5s3.4,7.5,7.5,7.5h95.1c4.1,0,7.5-3.4,7.5-7.5
			S307.7,105.3,303.6,105.3z"/>
		<path class="st0" d="M303.6,141.9h-95.1c-4.1,0-7.5,3.4-7.5,7.5s3.4,7.5,7.5,7.5h95.1c4.1,0,7.5-3.4,7.5-7.5
			S307.7,141.9,303.6,141.9z"/>
		<path class="st0" d="M495.2,417h-17.5V156.2c0-12.9-10.5-23.4-23.4-23.4h-84.8c-4.1,0-7.5,3.4-7.5,7.5s3.4,7.5,7.5,7.5h84.8
			c4.6,0,8.4,3.8,8.4,8.4V417H49.3V156.2c0-4.6,3.8-8.4,8.4-8.4h84.9c4.1,0,7.5-3.4,7.5-7.5s-3.4-7.5-7.5-7.5H57.7
			c-12.9,0-23.4,10.5-23.4,23.4V417H16.8C7.5,417,0,424.6,0,433.9c0,24.4,19.9,44.3,44.3,44.3h423.4c24.4,0,44.3-19.9,44.3-44.3
			C512,424.6,504.5,417,495.2,417z M15,433.9c0-1,0.8-1.8,1.8-1.8h178.6v15.7c0,5.6,1.5,10.9,4.2,15.4H44.3
			C28.1,463.2,15,450,15,433.9z M225.8,463.2c-8.5,0-15.4-6.9-15.4-15.4V432h91.2v15.7c0,8.5-6.9,15.4-15.4,15.4H225.8z
			 M467.7,463.2H312.4c2.7-4.5,4.2-9.8,4.2-15.4V432h178.6c1,0,1.8,0.8,1.8,1.8C497,450,483.9,463.2,467.7,463.2z"/>
		<path class="st0" d="M142.6,177.4c4.1,0,7.5-3.4,7.5-7.5s-3.4-7.5-7.5-7.5H70.5c-4.1,0-7.5,3.4-7.5,7.5v225.8
			c0,4.1,3.4,7.5,7.5,7.5h371c4.1,0,7.5-3.4,7.5-7.5V169.9c0-4.1-3.4-7.5-7.5-7.5h-72c-4.1,0-7.5,3.4-7.5,7.5s3.4,7.5,7.5,7.5H434
			v210.8H78V177.4H142.6z"/>
		<path class="st0" d="M148,243.3c-4.1,0-7.5,3.4-7.5,7.5s3.4,7.5,7.5,7.5h216c4.1,0,7.5-3.4,7.5-7.5s-3.4-7.5-7.5-7.5h-17V47.4
			c0-3.8-1.9-7.5-5-9.8c-3.1-2.3-7.2-2.9-10.8-1.7l-19.6,6.3l-24.1-7.8c-2.4-0.8-5-0.8-7.4,0L256,42.2l-24.1-7.8
			c-2.4-0.8-5-0.8-7.4,0l-24.1,7.8l-19.6-6.3c-3.7-1.2-7.7-0.5-10.8,1.7c-3.1,2.3-5,5.9-5,9.8v195.9L148,243.3L148,243.3z M180,51.4
			l16.6,5.4c2.4,0.8,5,0.8,7.4,0l24.1-7.8l24.1,7.8c2.4,0.8,5,0.8,7.4,0l24.1-7.8l24.1,7.8c2.4,0.8,5,0.8,7.4,0l16.6-5.4v191.9H180
			V51.4z"/>
		<path class="st0" d="M308.4,370c25.7,0,46.6-20.9,46.6-46.6s-20.9-46.6-46.6-46.6H203.6c-25.7,0-46.6,20.9-46.6,46.6
			s20.9,46.6,46.6,46.6H308.4z M172,323.4c0-17.4,14.2-31.6,31.6-31.6h104.9c17.4,0,31.6,14.2,31.6,31.6S325.9,355,308.4,355H203.6
			C186.1,355,172,340.8,172,323.4z"/>
	</g>
</g>
</svg>
