<?xml version="1.0" encoding="utf-8"?>
<!-- Generator: Adobe Illustrator 23.0.3, SVG Export Plug-In . SVG Version: 6.00 Build 0)  -->
<svg version="1.1" id="Layer_5" xmlns="http://www.w3.org/2000/svg" xmlns:xlink="http://www.w3.org/1999/xlink" x="0px" y="0px"
	 viewBox="0 0 512 512" style="enable-background:new 0 0 512 512;" xml:space="preserve">
<style type="text/css">
	.st0{fill:#FFFFFF;}
</style>
<path class="st0" d="M416,8c-48.5,0-88,39.5-88,88s39.5,88,88,88s88-39.5,88-88S464.5,8,416,8z M416,168c-39.7,0-72-32.3-72-72
	s32.3-72,72-72s72,32.3,72,72S455.7,168,416,168z"/>
<circle class="st0" cx="392" cy="64" r="8"/>
<circle class="st0" cx="440" cy="64" r="8"/>
<path class="st0" d="M445.7,115.1c-3.1,3.9-3.9,4.6-5.7,4.6c-1.8,0-2.6-0.7-5.7-4.6c-3.4-4.3-8.4-10.8-18.3-10.8
	c-9.9,0-15,6.5-18.3,10.8c-3.1,3.9-3.9,4.6-5.7,4.6s-2.6-0.7-5.7-4.6c-3.3-4.3-8.4-10.8-18.3-10.8v16c1.8,0,2.6,0.7,5.7,4.6
	c3.3,4.3,8.4,10.8,18.3,10.8s15-6.5,18.3-10.8c3.1-3.9,3.9-4.6,5.7-4.6c1.8,0,2.6,0.7,5.7,4.6c3.4,4.3,8.4,10.8,18.3,10.8
	s15-6.5,18.3-10.8c3.1-3.9,3.9-4.6,5.7-4.6v-16C454.1,104.3,449,110.8,445.7,115.1z"/>
<path class="st0" d="M256,264c17.6,0,32,14.4,32,32h16c0-26.5-21.5-48-48-48s-48,21.5-48,48h16C224,278.4,238.4,264,256,264z"/>
<circle class="st0" cx="232" cy="224" r="8"/>
<circle class="st0" cx="280" cy="224" r="8"/>
<path class="st0" d="M184,96c0-48.5-39.5-88-88-88S8,47.5,8,96s39.5,88,88,88S184,144.5,184,96z M24,96c0-39.7,32.3-72,72-72
	s72,32.3,72,72s-32.3,72-72,72S24,135.7,24,96z"/>
<circle class="st0" cx="72" cy="64" r="8"/>
<circle class="st0" cx="120" cy="64" r="8"/>
<path class="st0" d="M48,112h96v16H48V112z"/>
<path class="st0" d="M396,200c-15.4,0-28,12.6-28,28v85c0,4.2-3.3,7.7-7.5,8l-49.1,3.3c19.9-16.1,32.6-40.7,32.6-68.3
	c0-48.5-39.5-88-88-88s-88,39.5-88,88c0,29.8,14.9,56.1,37.6,72h-2.8c-29.5,0-56.9,14.6-73.2,39.2l-53.2,79.7
	c-2.9,4.4-4.4,9.4-4.4,14.7c0,14.6,11.8,26.4,26.4,26.4h3.7c8.9,0,17.1-4.4,22-11.8l51.9-77.8V504h160V382.7l42-7.6
	c26.6-4.8,46-28,46-55.1V228C424,212.6,411.4,200,396,200L396,200z M256,362.2L243,344h13c3.6,0,7.1-0.3,10.6-0.7l3-0.2L256,362.2z
	 M223.3,344l22.2,31.1l-16.6,16.6l-9.6-47.8H223.3z M290.3,341.7l2.8-0.2l-10,50.2l-16.6-16.6L290.3,341.7z M184,256
	c0-39.7,32.3-72,72-72s72,32.3,72,72c0,36.7-27.6,67-63.1,71.4l-9.1,0.6C216.2,327.9,184,295.6,184,256L184,256z M408,319.9
	c0,19.3-13.8,35.9-32.8,39.4l-55.2,10V488h-56v-16h-16v16h-56V376h-20.3l-60.9,91.4c-1.9,2.9-5.2,4.6-8.7,4.6h-3.7
	c-5.8,0-10.4-4.7-10.4-10.4c0-2.1,0.6-4.1,1.8-5.8l53.2-79.7c13.4-20.1,35.8-32.1,59.9-32.1h0.2l16,80.2l36.9-36.9l36.9,36.9
	l16.8-83.8l51.9-3.5c12.6-0.8,22.4-11.4,22.4-23.9v-85c0-6.6,5.4-12,12-12s12,5.4,12,12V319.9z"/>
<path class="st0" d="M248,408h16v16h-16V408z"/>
<path class="st0" d="M248,440h16v16h-16V440z"/>
</svg>
