<?xml version="1.0" encoding="utf-8"?>
<!-- Generator: Adobe Illustrator 23.0.3, SVG Export Plug-In . SVG Version: 6.00 Build 0)  -->
<svg version="1.1" id="Capa_1" xmlns="http://www.w3.org/2000/svg" xmlns:xlink="http://www.w3.org/1999/xlink" x="0px" y="0px"
	 viewBox="0 0 512 512" style="enable-background:new 0 0 512 512;" xml:space="preserve">
<style type="text/css">
	.st0{fill:#FFFFFF;}
</style>
<path class="st0" d="M488.4,355.8c-59.3-16.4-122.4-7.6-174.6,23.1c-41.6-29-90.3-44.3-141.1-44.3c-7.9,0-15.7,0.4-23.5,1.1v-73.2
	c13.8-2,26.4-9.5,36-21.6c11.4-14.4,18.4-34.8,20.2-59c0.3-4.1-2.8-7.7-6.9-8c-4.1-0.3-7.7,2.8-8,6.9c-2.7,36.9-18.6,61.9-41.2,66.5
	v-42.8c0-4.1-3.4-7.5-7.5-7.5s-7.5,3.4-7.5,7.5v42.8c-8.1-1.6-15.4-5.9-21.6-12.7c0.3-4.1,0.5-8.2,0.5-12.5c0-29-7.5-54.5-19.5-71.6
	c4.7-41.6,24.8-74,48.1-74c21.9,0,41.9,29.2,47.5,69.3c0.6,4.1,4.4,7,8.5,6.4c4.1-0.6,7-4.4,6.4-8.5c-6.8-48.4-32.5-82.2-62.4-82.2
	c-29.2,0-53.2,31.1-61.3,75.1c-7.2-5.5-15.3-8.5-23.9-8.5c-31.7,0-56.5,41.3-56.5,94c0,24.3,5.4,44.9,15.7,59.7
	C24.3,294.3,36,302,49,304.1v63.7c-7.4,4.3-14.5,8.9-21.5,14l-13.6,9.9c-8.3,6-13.3,15.8-13.3,26.1v78.9c0,7.5,6.1,13.7,13.7,13.7
	h484c7.5,0,13.7-6.1,13.7-13.7V386.9C512,372.4,502.3,359.6,488.4,355.8L488.4,355.8z M134.2,262.6v75c-24.4,3.8-48,11.3-70.1,22.2
	v-55.7c13.1-2.1,24.7-9.8,33.3-22.2c5.7-8.2,9.9-18.1,12.5-29.5C117.2,257.9,125.4,261.3,134.2,262.6L134.2,262.6z M15,222.2
	c0-42.8,19-79,41.5-79s41.5,36.2,41.5,79c0,36.2-13.4,61.7-34,66.6V253c0-4.1-3.4-7.5-7.5-7.5S49,248.8,49,253v35.8
	C28.4,283.9,15,258.4,15,222.2L15,222.2z M15.6,417.8c0-5.5,2.7-10.7,7.1-14l13.6-9.9c39.9-29,87-44.3,136.3-44.3
	c45.7,0,89.5,13.2,127.4,38.1c-4.7,3.2-9.3,6.6-13.7,10.3l-3.2,2.6c-33.5-15.4-70-23.4-107.5-23.4c-54.9,0-107.5,17.1-151.9,49.4
	l-8.1,5.9L15.6,417.8L15.6,417.8z M15.6,495.4v-4.9c0.9-0.2,1.8-0.6,2.7-1.2l14.3-10.4c32.6-23.7,70.9-39,110.7-44.3
	c4.1-0.5,7-4.3,6.4-8.4s-4.3-7-8.4-6.4c-42.3,5.7-83,21.9-117.6,47.1l-8.1,5.9v-22.4c0.9-0.2,1.8-0.6,2.7-1.2l14.3-10.4
	c41.9-30.4,91.3-46.5,143.1-46.5c32.9,0,64.8,6.5,94.5,19l-20.8,16.9c-23.1-6.9-47.2-10.5-71.8-10.7c0,0,0,0-0.1,0
	c-4.1,0-7.5,3.3-7.5,7.4c0,4.1,3.3,7.5,7.4,7.6c19.6,0.1,38.9,2.6,57.6,7.3L210.1,460c-11.4-1.5-22.9-2.3-34.4-2.3
	c-47.5,0-94,13-134.4,37.7L15.6,495.4L15.6,495.4z M72.9,495.4c32.1-14.9,67.1-22.7,102.7-22.7c6,0,12,0.3,18,0.7l-27.1,22H72.9z
	 M497,495.4H375.8c37.4-18.3,79.4-25.1,121.2-19.3V495.4z M497,460.9c-53.2-6.9-106.6,5.2-151.6,34.4h-37.6l14.1-11.4
	c25.4-20.6,54.4-34.7,86.2-41.9c29.1-6.5,59.7-6.8,88.9-0.8V460.9z M497,391.9c-44.4-11.4-92.2-8.9-135,7.1
	c-3.9,1.5-5.9,5.8-4.4,9.7c1.1,3,4,4.9,7,4.9c0.9,0,1.8-0.2,2.6-0.5c41.2-15.4,87.3-17.4,129.7-5.7c0,0,0,0,0,0V426
	c-30.4-5.8-62.1-5.4-92.2,1.4c-34.1,7.7-65.1,22.8-92.3,44.9L284,495.4h-35.5l59.8-48.6c8.9-7.2,18.4-13.7,28.3-19.4
	c3.6-2.1,4.8-6.6,2.8-10.2s-6.6-4.8-10.2-2.8c-10.6,6.1-20.8,13-30.3,20.8l-74.2,60.2h-34.4l105.5-85.7
	c52.7-42.8,123.2-57.5,188.6-39.4c7.4,2,12.6,8.9,12.6,16.6L497,391.9L497,391.9z"/>
<path class="st0" d="M377,194c32.6,0,59.2-26.5,59.2-59.2S409.7,75.7,377,75.7s-59.2,26.5-59.2,59.2S344.4,194,377,194z M377,90.7
	c24.4,0,44.2,19.8,44.2,44.2S401.4,179,377,179s-44.2-19.8-44.2-44.2S352.7,90.7,377,90.7z"/>
<path class="st0" d="M342.8,63.4c1,0,2-0.2,2.9-0.6c3.8-1.6,5.6-6,4-9.8c-1.6-3.8-6-5.6-9.9-4c-3.8,1.6-5.6,6-4,9.9
	C337.1,61.7,339.8,63.4,342.8,63.4L342.8,63.4z"/>
<path class="st0" d="M370.8,56.6c0.2,0,0.4,0,0.5,0c4.1-0.3,7.2-3.9,7-8s-3.9-7.2-8-7s-7.2,3.9-7,8
	C363.6,53.6,366.9,56.6,370.8,56.6z"/>
<path class="st0" d="M428.8,216c3.5-2.3,4.5-6.9,2.2-10.4c-2.3-3.5-6.9-4.5-10.4-2.2s-4.5,6.9-2.2,10.4c1.4,2.2,3.8,3.4,6.3,3.4
	C426.1,217.2,427.5,216.8,428.8,216L428.8,216z"/>
<path class="st0" d="M362,222.9c-0.4,4.1,2.7,7.8,6.8,8.1c0.2,0,0.4,0,0.6,0c3.9,0,7.1-2.9,7.5-6.9c0.4-4.1-2.7-7.8-6.8-8.1
	C366,215.7,362.4,218.7,362,222.9L362,222.9z"/>
<path class="st0" d="M400.1,228.5c4-1,6.5-5.1,5.5-9.1s-5.1-6.5-9.1-5.5h0c-4,1-6.5,5.1-5.5,9.1c0.9,3.4,3.9,5.7,7.3,5.7
	C398.8,228.7,399.4,228.7,400.1,228.5z"/>
<path class="st0" d="M453.1,111.5c1,3.2,4,5.2,7.1,5.2c0.8,0,1.6-0.1,2.3-0.4c3.9-1.3,6.1-5.5,4.8-9.5c-1.3-3.9-5.5-6.1-9.5-4.8
	C453.9,103.3,451.8,107.5,453.1,111.5z"/>
<circle class="st0" cx="464.5" cy="136.4" r="7.5"/>
<path class="st0" d="M450.6,184.3c-3.3-2.6-8-2-10.5,1.3c-2.6,3.3-2,8,1.3,10.5c1.4,1.1,3,1.6,4.6,1.6c2.2,0,4.4-1,5.9-2.9
	C454.4,191.6,453.9,186.8,450.6,184.3L450.6,184.3z"/>
<path class="st0" d="M348.4,219.4c1.7-3.8,0-8.2-3.8-9.9c-3.8-1.7-8.2,0-9.9,3.8c-1.7,3.8,0,8.2,3.8,9.9c1,0.4,2,0.6,3,0.6
	C344.4,223.8,347.1,222.1,348.4,219.4z"/>
<path class="st0" d="M419.6,59.6c-2.3,3.4-1.4,8.1,2,10.4c1.3,0.9,2.7,1.3,4.2,1.3c2.4,0,4.8-1.2,6.2-3.3c2.3-3.4,1.4-8.1-2-10.4
	C426.6,55.2,421.9,56.1,419.6,59.6z"/>
<path class="st0" d="M442.3,77.6c-3.3,2.5-4,7.2-1.5,10.5c1.5,1.9,3.7,3,6,3c1.6,0,3.2-0.5,4.5-1.5c3.3-2.5,4-7.2,1.5-10.5
	c0,0,0,0,0,0C450.3,75.8,445.6,75.1,442.3,77.6z"/>
<path class="st0" d="M397.6,59.1c0.6,0.2,1.3,0.3,1.9,0.3c3.3,0,6.4-2.2,7.2-5.6c1.1-4-1.3-8.1-5.3-9.2c-4-1.1-8.1,1.3-9.2,5.3
	C391.2,53.9,393.6,58,397.6,59.1L397.6,59.1z"/>
<path class="st0" d="M457.3,171.9c0.8,0.3,1.6,0.4,2.4,0.4c3.1,0,6-1.9,7.1-5.1c1.4-3.9-0.7-8.2-4.6-9.5s-8.2,0.7-9.5,4.6
	C451.3,166.3,453.4,170.6,457.3,171.9z"/>
<path class="st0" d="M293.9,90.4c-2,3.6-0.7,8.2,2.9,10.2c1.1,0.6,2.4,0.9,3.6,0.9c2.6,0,5.2-1.4,6.6-3.9c2-3.6,0.7-8.2-2.9-10.2
	S295.9,86.8,293.9,90.4L293.9,90.4z"/>
<path class="st0" d="M306.5,174c-2-3.7-6.5-5-10.1-3.1c-3.6,1.9-5,6.5-3.1,10.1c1.4,2.5,3.9,4,6.6,4c1.2,0,2.4-0.3,3.5-0.9
	C307,182.2,308.4,177.6,306.5,174z"/>
<path class="st0" d="M289.6,128.7c0.4,0.1,0.9,0.1,1.3,0.1c3.6,0,6.8-2.6,7.4-6.2c0.7-4.1-2-8-6.1-8.7s-8,2-8.7,6.1
	C282.8,124.1,285.5,128,289.6,128.7L289.6,128.7z"/>
<path class="st0" d="M317.5,207.9c2,0,4-0.8,5.5-2.4c2.8-3,2.7-7.8-0.4-10.6s-7.8-2.6-10.6,0.4c-2.8,3-2.7,7.8,0.4,10.6
	C313.8,207.2,315.6,207.9,317.5,207.9L317.5,207.9z"/>
<path class="st0" d="M290.7,157.6c0.4,0,0.8,0,1.2-0.1c4.1-0.6,6.9-4.5,6.2-8.6c-0.6-4.1-4.5-6.9-8.6-6.2c-4.1,0.6-6.9,4.5-6.2,8.6
	C283.9,155,287,157.6,290.7,157.6z"/>
<path class="st0" d="M318.5,79c1.8,0,3.6-0.6,5-1.9c3.1-2.8,3.3-7.5,0.5-10.6c-2.8-3.1-7.5-3.3-10.6-0.5c-3.1,2.8-3.3,7.5-0.5,10.6
	C314.4,78.1,316.4,79,318.5,79z"/>
<path class="st0" d="M500.5,175.5c3.4,0,6.4-2.3,7.3-5.6c1-4-1.4-8.1-5.4-9.1c-4-1-8.1,1.4-9.1,5.4c-1,4,1.4,8.1,5.4,9.1
	C499.3,175.4,499.9,175.5,500.5,175.5L500.5,175.5z"/>
<path class="st0" d="M470,231c2,0,4-0.8,5.5-2.4c2.8-3,2.7-7.8-0.3-10.6c-3-2.8-7.8-2.7-10.6,0.3c-2.8,3-2.7,7.8,0.3,10.6
	C466.4,230.4,468.2,231,470,231z"/>
<path class="st0" d="M469.3,55.9c1.9,0,3.7-0.7,5.2-2.1c3-2.9,3.1-7.6,0.3-10.6c-2.9-3-7.6-3.1-10.6-0.3c-3,2.8-3.1,7.6-0.3,10.6
	C465.3,55.1,467.3,55.9,469.3,55.9z"/>
<path class="st0" d="M258.7,191.3c0.9,0,1.9-0.2,2.8-0.5c3.8-1.5,5.7-5.9,4.2-9.8c-1.5-3.9-5.9-5.7-9.8-4.2
	c-3.9,1.6-5.7,5.9-4.2,9.8C252.9,189.5,255.7,191.3,258.7,191.3L258.7,191.3z"/>
<path class="st0" d="M493,105.6c0.9,3.4,3.9,5.6,7.2,5.6c0.6,0,1.3-0.1,1.9-0.3c4-1.1,6.4-5.2,5.3-9.2c-1.1-4-5.2-6.4-9.2-5.3
	C494.3,97.5,491.9,101.6,493,105.6L493,105.6z"/>
<path class="st0" d="M269.8,205.6c-3.3,2.4-4.1,7.1-1.6,10.5c1.5,2,3.8,3.1,6.1,3.1c1.5,0,3.1-0.5,4.4-1.4c3.3-2.4,4.1-7.1,1.6-10.5
	S273.1,203.1,269.8,205.6L269.8,205.6z"/>
<path class="st0" d="M269.2,68.1c1.3,1,2.9,1.4,4.4,1.4c2.3,0,4.6-1.1,6.1-3.1c2.4-3.4,1.6-8-1.7-10.5s-8-1.7-10.5,1.7
	C265,61,265.8,65.6,269.2,68.1L269.2,68.1z"/>
<path class="st0" d="M488.3,81.6c1.3,0,2.5-0.3,3.7-1c3.6-2,4.9-6.6,2.9-10.2c0,0,0,0,0,0c-2-3.6-6.6-4.9-10.2-2.9
	c-3.6,2-4.9,6.6-2.9,10.2C483.1,80.2,485.7,81.6,488.3,81.6L488.3,81.6z"/>
<path class="st0" d="M255.6,97c0.9,0.3,1.8,0.5,2.7,0.5c3,0,5.8-1.8,7-4.8c1.5-3.9-0.4-8.2-4.3-9.7s-8.2,0.4-9.7,4.3
	S251.7,95.5,255.6,97L255.6,97z"/>
<path class="st0" d="M492.4,191.1c-3.6-2-8.2-0.7-10.2,3c-2,3.6-0.7,8.2,3,10.2c1.1,0.6,2.4,0.9,3.6,0.9c2.6,0,5.2-1.4,6.6-3.9
	C497.4,197.7,496,193.1,492.4,191.1z"/>
<path class="st0" d="M258.1,151.9c-0.5-4.1-4.3-7-8.4-6.5c-4.1,0.5-7,4.3-6.5,8.4c0.5,3.8,3.7,6.5,7.4,6.5c0.3,0,0.6,0,1-0.1
	C255.7,159.8,258.6,156,258.1,151.9z"/>
<path class="st0" d="M316.3,248.7c-1.8,3.8-0.1,8.2,3.6,10c1,0.5,2.1,0.7,3.2,0.7c2.8,0,5.5-1.6,6.8-4.3c1.8-3.8,0.1-8.2-3.6-10
	C322.5,243.3,318,244.9,316.3,248.7L316.3,248.7z"/>
<path class="st0" d="M441.5,237.6c-3.5,2.2-4.5,6.9-2.3,10.4c1.4,2.3,3.9,3.5,6.3,3.5c1.4,0,2.8-0.4,4-1.2c3.5-2.2,4.5-6.9,2.3-10.4
	C449.6,236.4,444.9,235.4,441.5,237.6L441.5,237.6z"/>
<path class="st0" d="M384.8,256.1c-4.1,0.3-7.3,3.8-7,8c0.3,4,3.5,7,7.5,7c0.2,0,0.3,0,0.5,0c4.1-0.3,7.3-3.8,7-8
	C392.5,258.9,389,255.8,384.8,256.1L384.8,256.1z"/>
<path class="st0" d="M249.6,128.4c0.3,0,0.6,0.1,0.9,0.1c3.7,0,7-2.8,7.4-6.6c0.5-4.1-2.4-7.8-6.6-8.3c-4.1-0.5-7.9,2.4-8.4,6.6
	C242.6,124.2,245.5,127.9,249.6,128.4z"/>
<path class="st0" d="M414.3,250.4c-3.9,1.3-6.1,5.5-4.8,9.5c1,3.2,4,5.2,7.1,5.2c0.8,0,1.5-0.1,2.3-0.4c3.9-1.3,6.1-5.5,4.8-9.5
	C422.5,251.3,418.3,249.1,414.3,250.4L414.3,250.4z"/>
<path class="st0" d="M322.1,28.8c1.1,0,2.2-0.2,3.2-0.7c3.7-1.8,5.3-6.3,3.5-10c-1.8-3.7-6.3-5.3-10-3.5c-3.7,1.8-5.3,6.3-3.5,10
	C316.6,27.3,319.3,28.8,322.1,28.8z"/>
<path class="st0" d="M352.1,269c0.5,0.1,0.9,0.1,1.4,0.1c3.5,0,6.7-2.5,7.4-6.1c0.8-4.1-1.9-8-6-8.8c-4.1-0.8-8,1.9-8.8,6
	C345.3,264.3,348,268.3,352.1,269z"/>
<path class="st0" d="M352.4,18.8c0.5,0,1,0,1.5-0.1c4.1-0.8,6.7-4.7,5.9-8.8c-0.8-4.1-4.7-6.7-8.8-5.9c-4.1,0.8-6.7,4.7-5.9,8.8
	C345.7,16.3,348.9,18.8,352.4,18.8L352.4,18.8z"/>
<path class="st0" d="M383.8,16.6L383.8,16.6c0.1,0,0.3,0,0.4,0c4,0,7.3-3.1,7.5-7.1c0.2-4.1-2.9-7.7-7.1-7.9
	c-4.1-0.2-7.7,2.9-7.9,7.1C376.5,12.8,379.7,16.4,383.8,16.6L383.8,16.6z"/>
<path class="st0" d="M413.3,22c0.8,0.2,1.5,0.4,2.3,0.4c3.2,0,6.1-2,7.1-5.2c1.3-3.9-0.9-8.2-4.9-9.4c-4-1.3-8.2,0.9-9.4,4.9
	S409.4,20.8,413.3,22z"/>
<path class="st0" d="M440.6,34.6c1.2,0.8,2.6,1.1,4,1.1c2.5,0,4.9-1.2,6.4-3.5c2.2-3.5,1.1-8.1-2.4-10.3v0
	c-3.5-2.2-8.1-1.1-10.3,2.4S437.1,32.4,440.6,34.6z"/>
<path class="st0" d="M300.9,229c-3.2-2.6-7.9-2.2-10.6,1c-2.6,3.2-2.2,7.9,1,10.6c1.4,1.1,3.1,1.7,4.8,1.7c2.2,0,4.3-0.9,5.8-2.7
	C304.5,236.4,304.1,231.7,300.9,229L300.9,229z"/>
<path class="st0" d="M295.3,46.1c1.7,0,3.4-0.6,4.8-1.8c3.2-2.7,3.6-7.4,0.9-10.6s-7.4-3.6-10.6-0.9c-3.2,2.7-3.6,7.4-0.9,10.6
	C291,45.2,293.1,46.1,295.3,46.1z"/>
<path class="st0" d="M497.2,130.7c-1,4,1.4,8.1,5.4,9.1c0.6,0.2,1.3,0.2,1.9,0.2c3.4,0,6.4-2.3,7.3-5.6c1-4-1.4-8.1-5.4-9.1
	C502.3,124.2,498.3,126.7,497.2,130.7z"/>
</svg>
