<?xml version="1.0" encoding="utf-8"?>
<!-- Generator: Adobe Illustrator 23.0.3, SVG Export Plug-In . SVG Version: 6.00 Build 0)  -->
<svg version="1.1" id="Layer_1" xmlns="http://www.w3.org/2000/svg" xmlns:xlink="http://www.w3.org/1999/xlink" x="0px" y="0px"
	 viewBox="0 0 512 512" style="enable-background:new 0 0 512 512;" xml:space="preserve">
<style type="text/css">
	.st0{fill:#FFFFFF;}
</style>
<path class="st0" d="M510.7,493.6h-7v-11c0-7.5-4.9-13.8-11.7-15.9v-167c0-11.5-9.3-20.8-20.8-20.8H402v-61.8
	c0-10.7-7.8-19.6-18-21.3v-41.2c0-12-9.3-21.9-21.1-22.8c-3.6-21.2-14.2-40.6-30.2-55.3c-10.4-9.4-22.5-16.4-35.7-20.5V45.6
	c0-13.6-9.3-25.1-21.9-28.3v-5.9c0-4.1-3.3-7.3-7.3-7.3c-4.1,0-7.3,3.3-7.3,7.3v5.9c-12.6,3.3-21.9,14.7-21.9,28.3v10.6
	c-13.1,4.2-25.3,11.1-35.7,20.6c-16,14.6-26.6,34-30.2,55.2c-11.8,0.9-21.1,10.8-21.1,22.8v41.2c-10.2,1.7-18,10.6-18,21.3v61.8
	H64.2c-11.5,0-20.8,9.3-20.8,20.8v82.4c0,4.1,3.3,7.3,7.3,7.3s7.3-3.3,7.3-7.3v-54.4h50.2v12.9c0,6.2,4,11.4,9.6,13.3v85.6
	c-5.6,1.8-9.6,7.1-9.6,13.3v13.2H58.1v-47.9c0-4.1-3.3-7.3-7.3-7.3s-7.3,3.3-7.3,7.3v48.6c-6.8,2.1-11.7,8.4-11.7,15.9v11h-7
	c-4.1,0-7.3,3.3-7.3,7.3s3.3,7.3,7.3,7.3h486c4.1,0,7.3-3.3,7.3-7.3S514.7,493.6,510.7,493.6z M123,453.4h37.4v12.2H123V453.4z
	 M150.7,354.6v84.2h-18.2v-84.2H150.7z M308.6,276.3l-38.8-11.9c-1.4-0.4-2.8-0.4-4.2,0l-117.5,35.2v-18.3l119.6-36.5l119.6,36.5
	v18.2l-41.8-12.4c-3.9-1.1-8,1.1-9.1,5s1.1,8,5,9.1l40,11.8H154.2l113.6-34l36.7,11.3c3.9,1.1,8-1.1,9.1-5
	C314.7,281.5,312.5,277.5,308.6,276.3z M477.3,327.7v138.2h-49.4v-13.2c0-6.2-4-11.4-9.6-13.3v-85.6c5.6-1.8,9.6-7.1,9.6-13.3v-12.9
	H477.3z M403.6,354.6v84.2h-18.2v-84.2H403.6z M375.9,453.4h37.4v12.2h-37.4V453.4z M413.2,339.9h-37.4v-12.2h37.4V339.9z
	 M276.8,354.6v84.2h-18.2v-84.2H276.8z M286.4,453.4v12.2H249v-12.2H286.4z M286.4,339.9H249v-12.2h37.4V339.9z M165.4,439.5v-85.6
	c5.6-1.8,9.6-7.1,9.6-13.3v-12.9h59.3v12.9c0,6.2,4,11.4,9.6,13.3v85.6c-5.6,1.8-9.6,7.1-9.6,13.3v13.2H175v-13.2
	C175,446.6,171,441.3,165.4,439.5z M291.4,439.5v-85.6c5.6-1.8,9.6-7.1,9.6-13.3v-12.9h60.1v12.9c0,6.2,4,11.4,9.6,13.3v85.6
	c-5.6,1.8-9.6,7.1-9.6,13.3v13.2H301v-13.2C301,446.6,297,441.3,291.4,439.5z M477.3,299.7v13.3H402v-19.4h69.2
	C474.6,293.6,477.3,296.4,477.3,299.7z M166.1,175.6h203.2v20H166.1V175.6z M253.1,45.6c0-8,6.5-14.6,14.6-14.6
	c8,0,14.6,6.5,14.6,14.6v7.1c-4.8-0.7-9.7-1.1-14.6-1.1c-4.9,0-9.8,0.4-14.6,1.1V45.6z M174.3,146.5h4.7h0h0h31.2
	c4.1,0,7.3-3.3,7.3-7.3s-3.3-7.3-7.3-7.3h-22.7c3.4-17,12.2-32.5,25.1-44.3c9-8.2,19.6-14.2,31-17.7c5.6-1.9,14.2-4.1,24.8-4
	c9.9,0.1,17.9,2.1,23.3,4c11.4,3.5,22,9.5,31,17.6c13,11.8,21.8,27.3,25.2,44.3H247.5c-4.1,0-7.3,3.3-7.3,7.3s3.3,7.3,7.3,7.3h113.6
	c4.5,0,8.2,3.7,8.2,8.2v6.2H166.1v-6.2C166.1,150.2,169.8,146.5,174.3,146.5z M155,210.3h225.4c3.8,0,6.9,3.1,6.9,6.9V266
	l-117.5-35.8c-1.4-0.4-2.9-0.4-4.3,0L148.1,266v-48.8C148.1,213.3,151.2,210.3,155,210.3z M58.1,299.7c0-3.4,2.7-6.1,6.1-6.1h69.2
	v19.4H58.1V299.7z M140.8,327.7h19.6v12.2H123v-12.2H140.8z M46.4,493.6v-11c0-1.1,0.9-2,2-2H487c1.1,0,2,0.9,2,2v11L46.4,493.6
	L46.4,493.6z"/>
</svg>
