<?xml version="1.0" encoding="utf-8"?>
<!-- Generator: Adobe Illustrator 23.0.3, SVG Export Plug-In . SVG Version: 6.00 Build 0)  -->
<svg version="1.1" id="Layer_1" xmlns="http://www.w3.org/2000/svg" xmlns:xlink="http://www.w3.org/1999/xlink" x="0px" y="0px"
	 viewBox="0 0 512 512" style="enable-background:new 0 0 512 512;" xml:space="preserve">
<style type="text/css">
	.st0{fill:#FFFFFF;}
</style>
<path class="st0" d="M256,19c-3.9,0-7,3.1-7,7v460c0,3.9,3.1,7,7,7s7-3.1,7-7V26C263,22.1,259.9,19,256,19z"/>
<path class="st0" d="M103.4,155.3c23.4,0,42.4-19,42.4-42.4s-19-42.4-42.4-42.4S61,89.5,61,112.9l0,0C61,136.3,80,155.3,103.4,155.3
	z M103.4,84.5c15.7,0,28.4,12.7,28.4,28.4s-12.7,28.4-28.4,28.4S75,128.6,75,112.9S87.7,84.5,103.4,84.5L103.4,84.5z"/>
<path class="st0" d="M148.4,166.5c-0.1,0-0.3,0-0.4,0H58.8c-0.1,0-0.2,0-0.4,0C36.6,166.7,19,184.5,19,206.3v50.1
	c0,13.6,10.9,24.7,24.5,25l0.3,9.6c0.2,9.3,4.7,18,12,23.6l11.9,120.6c0.4,3.6,3.4,6.3,7,6.3h28.5h0.2c0,0,0.1,0,0.2,0H132
	c3.6,0,6.6-2.7,7-6.3l12-120.6c7.3-5.7,11.8-14.3,12-23.6l0.3-9.6c13.6-0.3,24.5-11.4,24.5-25v-50.1
	C187.7,184.5,170.2,166.8,148.4,166.5L148.4,166.5z M70.5,320.7c1.4,0.2,2.9,0.3,4.3,0.3h21.6v106.5H81.1L70.5,320.7z M125.7,427.5
	h-15.3V321h21.6c1.4,0,2.9-0.1,4.3-0.3L125.7,427.5z M173.7,256.4c0,6.1-4.9,11-11,11s-11-4.9-11-11v-35.9c0-3.9-3.1-7-7-7
	s-7,3.1-7,7v35.9c0,8.5,4.4,16.5,11.6,21.1l-0.4,13.1c-0.2,9.2-7.8,16.5-17,16.5H74.8c-9.2,0-16.8-7.3-17-16.5l-0.4-13.1
	c7.2-4.6,11.6-12.5,11.6-21.1v-35.9c0-3.9-3.1-7-7-7s-7,3.1-7,7v35.9c0,6.1-4.9,11-11,11s-11-4.9-11-11v-50.1
	c0-14.2,11.5-25.7,25.7-25.8H62c0.1,0,0.1,0,0.2,0h82.3c0.1,0,0.1,0,0.2,0h3.2c14.2,0,25.7,11.5,25.8,25.8L173.7,256.4z"/>
<path class="st0" d="M408.6,155.3c23.4,0,42.4-19,42.4-42.4c0-23.4-19-42.4-42.4-42.4c-23.4,0-42.4,19-42.4,42.4v0
	C366.2,136.3,385.2,155.3,408.6,155.3z M408.6,84.5c15.7,0,28.4,12.7,28.4,28.4s-12.7,28.4-28.4,28.4c-15.7,0-28.4-12.7-28.4-28.4
	l0,0C380.2,97.2,392.9,84.5,408.6,84.5z"/>
<path class="st0" d="M453.6,166.5c-0.1,0-0.2,0-0.4,0H364c-0.1,0-0.3,0-0.4,0c-21.8,0.3-39.3,18-39.3,39.7v50.1
	c0,13.6,10.9,24.7,24.5,25l0.2,7.2l-13.1,62c-0.8,3.8,1.6,7.5,5.4,8.3c0.5,0.1,1,0.2,1.4,0.2h22.7l7.5,76.2c0.4,3.6,3.4,6.3,7,6.3
	h57.3c3.6,0,6.6-2.7,7-6.3l7.5-76.2h22.7c3.9,0,7-3.1,7-7c0-0.5-0.1-1-0.2-1.4l-13.1-61.9l0.2-7.3c13.6-0.3,24.5-11.4,24.5-25v-50.1
	C493,184.4,475.4,166.7,453.6,166.5L453.6,166.5z M379.6,359h22.1v68.5h-15.3L379.6,359z M430.9,427.5h-15.3V359h22.1L430.9,427.5z
	 M351.4,345l10.3-48.7h93.9l10.3,48.7H351.4z M479,256.4c0,6.1-4.9,11-11,11s-11-4.9-11-11v-35.9c0-3.9-3.1-7-7-7s-7,3.1-7,7v35.9
	c0,8.5,4.4,16.5,11.6,21.1l-0.1,4.9h-91.6l-0.1-4.9c7.2-4.6,11.6-12.5,11.6-21.1v-35.9c0-3.9-3.1-7-7-7s-7,3.1-7,7v35.9
	c0,6.1-4.9,11-11,11s-11-4.9-11-11v-50.1c0-14.2,11.5-25.7,25.8-25.8h3.2c0.1,0,0.1,0,0.2,0h82.3c0.1,0,0.1,0,0.2,0h3.2
	c14.2,0,25.7,11.5,25.8,25.8L479,256.4z"/>
</svg>
