<?xml version="1.0" encoding="utf-8"?>
<!-- Generator: Adobe Illustrator 23.0.3, SVG Export Plug-In . SVG Version: 6.00 Build 0)  -->
<svg version="1.1" id="Layer_1" xmlns="http://www.w3.org/2000/svg" xmlns:xlink="http://www.w3.org/1999/xlink" x="0px" y="0px"
	 viewBox="0 0 354 354" style="enable-background:new 0 0 354 354;" xml:space="preserve">
<style type="text/css">
	.st0{fill:#D4E1F4;}
	.st1{fill:#1AE5BE;}
	.st2{fill:#0635C9;}
</style>
<path class="st0" d="M207,324c-97.6,0-177-79.4-177-177c0-39.6,13.3-78.1,37.8-109.2C25,71.3,0,122.6,0,177c0,97.6,79.4,177,177,177
	c54.4,0,105.7-25,139.2-67.8C285.1,310.7,246.6,324,207,324z"/>
<path class="st1" d="M233.5,101.1c0-3.9-3.1-7-7-7h-98.9c-3.9,0-7,3.1-7,7s3.1,7,7,7h28.3c16.9,0,31.4,11.9,34.7,28.4h-63.1
	c-3.9,0-7,3.1-7,7c0,3.9,3.1,7,7,7h63.1c-3.4,16.5-17.9,28.4-34.7,28.4h-28.3c-2.9,0-5.4,1.8-6.5,4.4c-1.1,2.7-0.4,5.7,1.7,7.7
	l70.8,66.9c1.8,1.7,4.4,2.4,6.8,1.6c2.4-0.7,4.2-2.7,4.8-5.1c0.6-2.4-0.2-5-2-6.7l-58-54.8h10.7c24.6,0,45.4-18.1,48.9-42.4h21.7
	c3.9,0,7-3.1,7-7c0-3.9-3.1-7-7-7h-21.7c-1.6-10.8-6.7-20.8-14.5-28.4h36.2C230.3,108.1,233.5,105,233.5,101.1z"/>
<path class="st1" d="M336.5,23.4c-2.7-2.8-7.1-2.9-9.9-0.2l-52.5,50.1l-27.7-27.7c-2.7-2.7-7.2-2.7-9.9,0c-2.7,2.7-2.7,7.2,0,9.9
	L269.1,88c2.7,2.7,7,2.7,9.8,0.1l57.4-54.9C339.1,30.6,339.2,26.2,336.5,23.4z"/>
<path class="st2" d="M177,14c18.3,0,36.4,3,53.7,9c2.4,0.8,5,0.3,6.9-1.3c1.9-1.6,2.8-4.2,2.3-6.6s-2.2-4.5-4.6-5.3
	C216.5,3.3,196.8,0,177,0C79.4,0,0,79.4,0,177s79.4,177,177,177s177-79.4,177-177c0-23.4-4.6-46.6-13.6-68.2
	c-1.5-3.5-5.6-5.2-9.1-3.7c-3.5,1.5-5.2,5.5-3.8,9.1c8.3,19.9,12.6,41.2,12.5,62.8c0,89.9-73.1,163-163,163S14,266.9,14,177
	S87.1,14,177,14z"/>
</svg>
