<?xml version="1.0" encoding="utf-8"?>
<!-- Generator: Adobe Illustrator 23.0.3, SVG Export Plug-In . SVG Version: 6.00 Build 0)  -->
<svg version="1.1" id="Capa_1" xmlns="http://www.w3.org/2000/svg" xmlns:xlink="http://www.w3.org/1999/xlink" x="0px" y="0px"
	 viewBox="0 0 512 512" style="enable-background:new 0 0 512 512;" xml:space="preserve">
<style type="text/css">
	.st0{fill:#DA8C36;}
	.st1{fill:#C97629;}
	.st2{fill:#B0C4D9;}
	.st3{fill:#D5E3EF;}
	.st4{fill:#4C9CD6;}
	.st5{fill:#70B7E5;}
	.st6{fill:#595A66;}
	.st7{fill:#89C763;}
	.st8{fill:#71B956;}
	.st9{fill:#C9D5E3;}
	.st10{fill:#3689C9;}
	.st11{fill:#1470B8;}
</style>
<g>
	<path class="st0" d="M58.2,488.7v-46.5c0-7-4.7-11.6-11.6-11.6s-11.6,4.7-11.6,11.6v46.5H58.2z"/>
	<path class="st0" d="M477.1,488.7v-46.5c0-7-4.7-11.6-11.6-11.6s-11.6,4.7-11.6,11.6v46.5H477.1z"/>
</g>
<g>
	<polygon class="st1" points="453.8,430.5 453.8,453.8 465.5,453.8 465.5,488.7 477.1,488.7 477.1,453.8 477.1,430.5 	"/>
	<polygon class="st1" points="34.9,430.5 34.9,453.8 46.5,453.8 46.5,488.7 58.2,488.7 58.2,453.8 58.2,430.5 	"/>
</g>
<path class="st2" d="M256,69.8c-7,0-11.6-4.7-11.6-11.6V11.6C244.4,4.7,249,0,256,0s11.6,4.7,11.6,11.6v46.5
	C267.6,65.2,263,69.8,256,69.8z"/>
<path class="st3" d="M116.4,488.7V116.4c0-7,4.7-11.6,11.6-11.6h58.2c7,0,11.6-4.7,11.6-11.6V69.8c0-7,4.7-11.6,11.6-11.6h93.1
	c7,0,11.6,4.7,11.6,11.6v23.3c0,7,4.7,11.6,11.6,11.6H384c7,0,11.6,4.7,11.6,11.6v372.4L116.4,488.7L116.4,488.7z"/>
<path class="st4" d="M349.1,186.2H162.9c-7,0-11.6-4.7-11.6-11.6v-23.3c0-7,4.7-11.6,11.6-11.6h186.2c7,0,11.6,4.7,11.6,11.6v23.3
	C360.7,181.5,356.1,186.2,349.1,186.2z"/>
<g>
	<polygon class="st5" points="244.4,186.2 221.1,186.2 256,139.6 279.3,139.6 	"/>
	<polygon class="st5" points="302.5,186.2 256,186.2 290.9,139.6 337.5,139.6 	"/>
</g>
<path class="st4" d="M349.1,256H162.9c-7,0-11.6-4.7-11.6-11.6v-23.3c0-7,4.7-11.6,11.6-11.6h186.2c7,0,11.6,4.7,11.6,11.6v23.3
	C360.7,251.3,356.1,256,349.1,256z"/>
<g>
	<polygon class="st5" points="244.4,256 221.1,256 256,209.5 279.3,209.5 	"/>
	<polygon class="st5" points="302.5,256 256,256 290.9,209.5 337.5,209.5 	"/>
</g>
<path class="st4" d="M349.1,325.8H162.9c-7,0-11.6-4.7-11.6-11.6v-23.3c0-7,4.7-11.6,11.6-11.6h186.2c7,0,11.6,4.7,11.6,11.6v23.3
	C360.7,321.2,356.1,325.8,349.1,325.8z"/>
<g>
	<polygon class="st5" points="244.4,325.8 221.1,325.8 256,279.3 279.3,279.3 	"/>
	<polygon class="st5" points="302.5,325.8 256,325.8 290.9,279.3 337.5,279.3 	"/>
</g>
<path class="st4" d="M349.1,395.6H162.9c-7,0-11.6-4.7-11.6-11.6v-23.3c0-7,4.7-11.6,11.6-11.6h186.2c7,0,11.6,4.7,11.6,11.6V384
	C360.7,391,356.1,395.6,349.1,395.6z"/>
<g>
	<polygon class="st5" points="244.4,395.6 221.1,395.6 256,349.1 279.3,349.1 	"/>
	<polygon class="st5" points="302.5,395.6 256,395.6 290.9,349.1 337.5,349.1 	"/>
</g>
<path class="st6" d="M500.4,512H11.6c-7,0-11.6-4.7-11.6-11.6s4.7-11.6,11.6-11.6h488.7c7,0,11.6,4.7,11.6,11.6S507.3,512,500.4,512
	z"/>
<path class="st7" d="M500.4,407.3c0,19.8-15.1,34.9-34.9,34.9s-34.9-15.1-34.9-34.9s34.9-58.2,34.9-58.2S500.4,387.5,500.4,407.3z"
	/>
<path class="st8" d="M482.9,370c3.5,8.1,5.8,15.1,5.8,20.9c0,22.1-15.1,39.6-34.9,39.6c-7,0-12.8-2.3-18.6-5.8
	c5.8,10.5,17.5,17.5,30.3,17.5c19.8,0,34.9-15.1,34.9-34.9C500.4,398,491.1,382.8,482.9,370z"/>
<path class="st7" d="M81.5,407.3c0,19.8-15.1,34.9-34.9,34.9s-34.9-15.1-34.9-34.9s34.9-58.2,34.9-58.2S81.5,387.5,81.5,407.3z"/>
<g>
	<rect x="221.1" y="418.9" class="st4" width="69.8" height="69.8"/>
	<path class="st4" d="M349.1,465.5h-23.3c-7,0-11.6-4.7-11.6-11.6v-23.3c0-7,4.7-11.6,11.6-11.6h23.3c7,0,11.6,4.7,11.6,11.6v23.3
		C360.7,460.8,356.1,465.5,349.1,465.5z"/>
	<path class="st4" d="M186.2,465.5h-23.3c-7,0-11.6-4.7-11.6-11.6v-23.3c0-7,4.7-11.6,11.6-11.6h23.3c7,0,11.6,4.7,11.6,11.6v23.3
		C197.8,460.8,193.2,465.5,186.2,465.5z"/>
</g>
<path class="st8" d="M64,370c3.5,8.1,5.8,15.1,5.8,20.9c0,22.1-15.1,39.6-34.9,39.6c-7,0-12.8-2.3-18.6-5.8
	c5.8,10.5,17.5,17.5,30.3,17.5c19.8,0,34.9-15.1,34.9-34.9C81.5,398,72.1,382.8,64,370z"/>
<path class="st9" d="M302.5,58.2h-93.1c-7,0-11.6,4.7-11.6,11.6v23.3c0,7-4.7,11.6-11.6,11.6h139.6c-7,0-11.6-4.7-11.6-11.6V69.8
	C314.2,62.8,309.5,58.2,302.5,58.2z"/>
<path class="st2" d="M314.2,93.1V69.8c0-7-4.7-11.6-11.6-11.6h-34.9c7,0,11.6,4.7,11.6,11.6v23.3c0,7,4.7,11.6,11.6,11.6h34.9
	C318.8,104.7,314.2,100.1,314.2,93.1z"/>
<path class="st10" d="M360.7,151.3H151.3l0,0c0-7,4.7-11.6,11.6-11.6h186.2C356.1,139.6,360.7,144.3,360.7,151.3L360.7,151.3z"/>
<g>
	<polygon class="st4" points="270,151.3 279.3,139.6 256,139.6 246.7,151.3 	"/>
	<polygon class="st4" points="328.1,151.3 337.5,139.6 290.9,139.6 281.6,151.3 	"/>
</g>
<path class="st10" d="M360.7,221.1H151.3l0,0c0-7,4.7-11.6,11.6-11.6h186.2C356.1,209.5,360.7,214.1,360.7,221.1L360.7,221.1z"/>
<g>
	<polygon class="st4" points="270,221.1 279.3,209.5 256,209.5 246.7,221.1 	"/>
	<polygon class="st4" points="328.1,221.1 337.5,209.5 290.9,209.5 281.6,221.1 	"/>
</g>
<path class="st10" d="M360.7,290.9H151.3l0,0c0-7,4.7-11.6,11.6-11.6h186.2C356.1,279.3,360.7,283.9,360.7,290.9L360.7,290.9z"/>
<g>
	<polygon class="st4" points="270,290.9 279.3,279.3 256,279.3 246.7,290.9 	"/>
	<polygon class="st4" points="328.1,290.9 337.5,279.3 290.9,279.3 281.6,290.9 	"/>
</g>
<g>
	<path class="st10" d="M360.7,360.7H151.3l0,0c0-7,4.7-11.6,11.6-11.6h186.2C356.1,349.1,360.7,353.7,360.7,360.7L360.7,360.7z"/>
	<path class="st10" d="M360.7,430.5h-46.5l0,0c0-7,4.7-11.6,11.6-11.6h23.3C356.1,418.9,360.7,423.6,360.7,430.5L360.7,430.5z"/>
	<path class="st10" d="M197.8,430.5h-46.5l0,0c0-7,4.7-11.6,11.6-11.6h23.3C193.2,418.9,197.8,423.6,197.8,430.5L197.8,430.5z"/>
</g>
<g>
	<polygon class="st4" points="270,360.7 279.3,349.1 256,349.1 246.7,360.7 	"/>
	<polygon class="st4" points="328.1,360.7 337.5,349.1 290.9,349.1 281.6,360.7 	"/>
</g>
<g>
	<polygon class="st5" points="256,418.9 221.1,460.8 221.1,488.7 279.3,418.9 	"/>
	<polygon class="st5" points="290.9,418.9 232.7,488.7 279.3,488.7 290.9,474.8 	"/>
</g>
<g>
	<circle class="st11" cx="261.8" cy="459.6" r="5.8"/>
	<circle class="st11" cx="250.2" cy="459.6" r="5.8"/>
</g>
</svg>
