<?xml version="1.0" encoding="utf-8"?>
<!-- Generator: Adobe Illustrator 23.0.3, SVG Export Plug-In . SVG Version: 6.00 Build 0)  -->
<svg version="1.1" id="Layer_1" xmlns="http://www.w3.org/2000/svg" xmlns:xlink="http://www.w3.org/1999/xlink" x="0px" y="0px"
	 viewBox="0 0 512 512" style="enable-background:new 0 0 512 512;" xml:space="preserve">
<style type="text/css">
	.st0{fill:#0074FF;}
	.st1{fill:#CCD3EB;}
	.st2{fill:#F5F7FF;}
	.st3{fill:#033C59;}
	.st4{fill:#96A1C3;}
</style>
<g id="Subscription">
	<path class="st0" d="M453.1,49.5v46.9H21.4V49.5C21.4,34,34,21.4,49.5,21.4h375.4C440.5,21.4,453.1,34,453.1,49.5z"/>
	<path class="st1" d="M453.1,96.5v234.6c0,15.5-12.6,28.2-28.2,28.2H49.5c-15.5,0-28.2-12.6-28.2-28.2V96.5H453.1z"/>
	<path class="st2" d="M274.8,321.7c0,3.2,0.6,6.4,1.7,9.4h-1.7V321.7z"/>
	<path class="st2" d="M330.4,328c1.2,1.2,2.5,2.2,3.9,3.1h-4.9C329.9,330,330.1,329,330.4,328L330.4,328z"/>
	<path class="st2" d="M370.4,326.9c0.5,1.3,1.1,2.6,1.8,3.8c-2.2,0.1-4.4,0.1-6.7,0C367.3,329.6,368.9,328.3,370.4,326.9z"/>
	<path class="st2" d="M424.9,96.5v168.9c-1.6-0.1-3.1-0.1-4.7,0c-5,0-10,0.7-14.8,2.2C397.7,261,388.1,257,378,256v-32.8
		c0-28.5-23.1-51.6-51.6-51.6c-1.8-0.1-3.5-0.1-5.3,0c-26.7,3.3-46.6,26.1-46.4,52.9v32.2c-3.1-0.5-6.2-0.7-9.4-0.7h-2.2
		c-25.1,1.2-44.8,21.8-44.8,46.9c0,15.5-12.6,28.2-28.2,28.2H21.4V96.5H424.9z"/>
	<path class="st0" d="M406.2,195.4c0,6.3-2.7,12.4-7.4,16.6c-4.9,4.5-11.2,6.9-17.8,6.9h-80.5c-13.5,0.7-24.9-9.7-25.6-23.1
		c0-0.1,0-0.2,0-0.3c0-6.3,2.7-12.4,7.4-16.6c4.9-4.5,11.2-6.9,17.8-6.9h80.9C394.4,171.4,405.6,181.9,406.2,195.4L406.2,195.4z"/>
	<path class="st1" d="M68.7,143.8h159.5v93.8H68.7L68.7,143.8z"/>
	<path class="st1" d="M490.6,337.5v48.3c-0.1,42.1-21.3,81.4-56.3,104.8H302.9c-35.2-23.5-56.3-62.9-56.3-105.2v-82.5
		c0-9.9,7.7-18.1,17.5-18.8c20.7-0.7,38.1,15.6,38.7,36.3c0,0.4,0,0.8,0,1.2v-96.8c-0.3-12.4,8.8-23,21-24.7
		c12.9-1.3,24.4,8,25.8,20.9c0.1,0.8,0.1,1.6,0.1,2.5V308c0-13,10.5-23.5,23.4-23.5c0.8,0,1.7,0,2.5,0.1c12.3,1.7,21.3,12.3,21,24.7
		v8.1c0-13,10.5-23.5,23.4-23.5c0.8,0,1.7,0,2.5,0.1c12.3,1.7,21.3,12.3,21,24.7v17.5c0-13,10.5-23.5,23.4-23.5c0.8,0,1.7,0,2.5,0.1
		C481.8,314.5,490.9,325.1,490.6,337.5z"/>
	<path class="st2" d="M490.6,337.1v21.4c-1.5,58.2-49.5,104.5-107.7,104h-9.4c-58.4,0.7-106.6-45.6-108.1-104v-55.6
		c-0.1-7.3,4.1-14.1,10.8-17.2c2.8,0.8,5.4,2,8,3.4c11.6,6.7,18.8,19.1,18.8,32.6v-97.2c-0.3-12.4,8.8-23.1,21.1-24.8
		c4-0.4,8.1,0.3,11.8,2c8.6,3.7,14.1,12.2,14,21.5v84.5c0-11.2,7.8-20.8,18.8-23c2.3-0.3,4.7-0.3,7,0c2.4,0.2,4.8,0.8,6.9,2
		c8.6,4.1,14.1,12.8,14.2,22.3v8.1c0-9.6,5.9-18.3,14.8-21.8c3.5-1.5,7.2-2.1,11-1.7c2.4,0.2,4.8,0.8,6.9,2
		c8.8,4.2,14.3,13.1,14.2,22.8v17.5c0-10.9,7.6-20.4,18.2-22.8c2.5-0.7,5.1-0.9,7.6-0.6c2.4,0.2,4.8,0.8,6.9,2
		C485.2,318.5,490.7,327.4,490.6,337.1z"/>
	<circle class="st2" cx="68.3" cy="58.9" r="9.4"/>
	<circle class="st2" cx="115.2" cy="58.9" r="9.4"/>
	<circle class="st2" cx="162.2" cy="58.9" r="9.4"/>
	<g>
		<path class="st3" d="M453.1,105.8H21.4c-5.2,0-9.4-4.2-9.4-9.4s4.2-9.4,9.4-9.4h431.7c5.2,0,9.4,4.2,9.4,9.4
			S458.3,105.8,453.1,105.8z"/>
		<path class="st3" d="M302.9,368.6c-5.2,0-9.4-4.2-9.4-9.4v-37.5c0-5.2,4.2-9.4,9.4-9.4c5.2,0,9.4,4.2,9.4,9.4v37.5
			C312.3,364.4,308.1,368.6,302.9,368.6z"/>
		<path class="st3" d="M474.8,450.5c3.2,3.1,3.8,8.1,1.3,11.9c-9.8,14.2-22.2,26.4-36.6,36c-1.5,1-3.3,1.6-5.2,1.5
			c-5.2,0-9.4-4.3-9.3-9.5c0-3.1,1.6-6,4.2-7.7c12.3-8.2,23-18.7,31.3-31c3-4.2,8.8-5.3,13.1-2.3C474,449.8,474.4,450.2,474.8,450.5
			z"/>
		<path class="st3" d="M500,337.1v48.3c0,13.1-1.9,26.1-5.6,38.7c-1.5,4.9-6.8,7.7-11.8,6.2c-1.4-0.5-2.8-1.2-3.8-2.3
			c-2.5-2.5-3.4-6.1-2.3-9.4c3.2-10.8,4.8-21.9,4.8-33.1v-48.3c0.3-7.6-5.1-14.2-12.6-15.4c-4-0.5-8,0.8-11,3.6
			c-2.9,2.7-4.6,6.5-4.6,10.5c0,5.2-4.2,9.4-9.4,9.4c-5.2,0-9.4-4.2-9.4-9.4v-17.5c0.3-7.6-5.1-14.2-12.6-15.4c-4-0.5-8,0.8-11,3.6
			c-2.9,2.7-4.6,6.5-4.6,10.5c0,5.2-4.2,9.4-9.4,9.4s-9.4-4.2-9.4-9.4v-8.1c0.3-7.6-5.1-14.2-12.6-15.4c-4-0.5-8,0.8-11,3.6
			c-2.9,2.7-4.6,6.5-4.6,10.5c0,5.2-4.2,9.4-9.4,9.4c-5.2,0-9.4-4.2-9.4-9.4v-84.5c0-7.8-6.2-14.1-14-14.2c-0.5,0-1.1,0-1.6,0.1
			c-7.5,1.2-12.9,7.8-12.6,15.4v97.2c0,5.2-4.2,9.4-9.4,9.4c-5.2,0-9.4-4.2-9.4-9.4c0-15.5-12.6-28.2-28.1-28.2c-0.3,0-0.6,0-1,0
			c-4.8,0.5-8.5,4.5-8.4,9.4v82.5c0,39.1,19.5,75.7,52.1,97.4c4,3.3,4.7,9.2,1.4,13.2c-2.8,3.5-7.8,4.5-11.7,2.4
			c-37.7-25.1-60.5-67.3-60.5-112.6v-82.9c0-15,11.7-27.4,26.7-28.2c10.7-0.3,21.1,3,29.7,9.4v-59.7c-0.3-17.2,12.4-31.9,29.5-34.2
			c18-1.9,34.1,11.1,36,29.1c0.1,1.2,0.2,2.5,0.2,3.8V278c5.4-2.6,11.5-3.7,17.5-3.2c10,1.2,18.9,6.9,24.2,15.5
			c14.5-10.6,34.9-7.4,45.5,7.1c2.1,2.9,3.7,6.1,4.8,9.5c5.9-3.2,12.6-4.6,19.3-3.9C487.6,305.2,500.3,319.9,500,337.1L500,337.1z"
			/>
		<path class="st3" d="M21.4,227.8c-5.2,0-9.4-4.2-9.4-9.4V49.5C12,28.8,28.8,12,49.5,12h140.8c5.2,0,9.4,4.2,9.4,9.4
			s-4.2,9.4-9.4,9.4H49.5c-10.4,0-18.8,8.4-18.8,18.8v168.9C30.8,223.6,26.6,227.8,21.4,227.8z"/>
		<path class="st3" d="M256,359.2c0,5.2-4.2,9.4-9.4,9.4H49.5c-20.7,0-37.5-16.8-37.5-37.5V256c0-5.2,4.2-9.4,9.4-9.4
			s9.4,4.2,9.4,9.4v75.1c0,10.4,8.4,18.8,18.8,18.8h197.1C251.8,349.8,256,354,256,359.2z"/>
		<path class="st3" d="M227.8,12L227.8,12c5.2,0,9.4,4.2,9.4,9.4l0,0c0,5.2-4.2,9.4-9.4,9.4l0,0c-5.2,0-9.4-4.2-9.4-9.4l0,0
			C218.5,16.2,222.7,12,227.8,12z"/>
		<path class="st3" d="M462.5,49.5V317c0,5.2-4.2,9.4-9.4,9.4s-9.4-4.2-9.4-9.4V49.5c0-10.4-8.4-18.8-18.8-18.8H265.4
			c-5.2,0-9.4-4.2-9.4-9.4s4.2-9.4,9.4-9.4h159.5C445.7,12,462.5,28.8,462.5,49.5z"/>
		<path class="st3" d="M380.9,227.8h-31.1c-5.2,0-9.4-4.2-9.4-9.4c0-5.2,4.2-9.4,9.4-9.4h31.5c4.2,0,8.3-1.5,11.4-4.3
			c2.7-2.4,4.3-5.8,4.4-9.4c-0.3-8.3-7.2-14.8-15.5-14.5c-0.3,0-0.5,0-0.8,0H300c-4.2,0-8.3,1.5-11.4,4.3c-2.7,2.4-4.3,5.8-4.4,9.4
			c0.3,8.3,7.3,14.8,15.5,14.5c0.1,0,0.2,0,0.3,0h3.7c5.2,0,9.4,4.2,9.4,9.4c0,5.2-4.2,9.4-9.4,9.4H300
			c-18.6,0.4-34.1-14.2-34.6-32.8c0.1-8.9,3.9-17.4,10.4-23.5c6.6-6.1,15.3-9.4,24.2-9.4h80.9c18.6-0.4,34.1,14.2,34.6,32.8
			c-0.1,8.9-3.9,17.4-10.4,23.5C398.5,224.5,389.9,227.9,380.9,227.8L380.9,227.8z"/>
	</g>
	<path class="st4" d="M227.8,246.6H68.3c-5.2,0-9.4-4.2-9.4-9.4v-93.8c0-5.2,4.2-9.4,9.4-9.4h159.5c5.2,0,9.4,4.2,9.4,9.4v93.8
		C237.2,242.4,233,246.6,227.8,246.6z M77.7,227.8h140.8v-75.1H77.7V227.8z"/>
	<path class="st4" d="M218.5,284.2H77.7c-5.2,0-9.4-4.2-9.4-9.4c0-5.2,4.2-9.4,9.4-9.4h140.8c5.2,0,9.4,4.2,9.4,9.4
		C227.8,280,223.6,284.2,218.5,284.2z"/>
	<path class="st4" d="M162.2,321.7H77.7c-5.2,0-9.4-4.2-9.4-9.4c0-5.2,4.2-9.4,9.4-9.4h84.5c5.2,0,9.4,4.2,9.4,9.4
		C171.5,317.5,167.3,321.7,162.2,321.7z"/>
</g>
</svg>
