<?xml version="1.0" encoding="utf-8"?>
<!-- Generator: Adobe Illustrator 23.0.3, SVG Export Plug-In . SVG Version: 6.00 Build 0)  -->
<svg version="1.1" id="Layer_1" xmlns="http://www.w3.org/2000/svg" xmlns:xlink="http://www.w3.org/1999/xlink" x="0px" y="0px"
	 viewBox="0 0 488 488" style="enable-background:new 0 0 488 488;" xml:space="preserve">
<style type="text/css">
	.st0{fill:#F9CFCF;}
	.st1{fill:#3762CC;}
	.st2{fill:#E0EBFC;}
	.st3{fill:#F9A7A7;}
</style>
<path class="st0" d="M398.4,146.5l-9.6-43.4c-1.4-6.2-7.2-10.3-12.9-9c-3.3,0.8-6,3.3-7.2,6.7l-9.5,28.4c-1.3,3.8-4.5,6.5-8.3,6.9
	l-56.5,5.8c-3.6,0.4-6.6,2.7-8,6.2l-11.3,27.6l3.1,1.9l5.8,0.3c16.2,0.9,31.9,5.4,45.8,13.2c2.7,1.5,5.3,3.2,7.7,5l0.5-5.2
	c0.4-3.8,2.5-7,5.7-8.6l49.3-23.6C397.3,156.7,399.6,151.6,398.4,146.5z"/>
<path class="st1" d="M337.5,200.2c-0.8,0-1.7-0.3-2.4-0.8c-2.4-1.8-4.8-3.4-7.3-4.7c-13.4-7.4-28.6-11.8-44.1-12.7l-5.8-0.3
	c-0.7,0-1.3-0.2-1.9-0.6l-3-1.9c-1.6-1-2.3-3.1-1.6-4.9l11.3-27.6c2-4.8,6.3-8.1,11.3-8.6l56.5-5.8c2.3-0.2,4.1-1.8,4.9-4.2
	l9.5-28.4c1.6-4.8,5.4-8.3,10.1-9.3c3.6-0.8,7.4-0.1,10.7,1.9c3.5,2.2,6.1,5.9,7,10.1l9.6,43.4c1.5,7-1.6,13.9-7.6,16.8L345.4,186
	c-1.9,0.9-3.2,2.9-3.5,5.3l-0.5,5.1c-0.1,1.4-1,2.7-2.4,3.3C338.6,200,338,200.2,337.5,200.2z M280.2,173.7l3.9,0.2
	c16.7,0.9,33.1,5.7,47.5,13.7c0.8,0.5,1.7,1,2.5,1.5c0.9-4.6,3.7-8.3,7.7-10.3l49.3-23.6c2.7-1.3,4-4.5,3.3-7.9l-9.6-43.4
	c-0.5-2.1-1.7-4-3.5-5.1c-1.4-0.9-3.1-1.2-4.6-0.9c-2,0.4-3.6,2-4.3,4.1l-9.5,28.4c-1.8,5.4-6.3,9-11.7,9.6l-56.5,5.8
	c-2.1,0.2-3.9,1.6-4.8,3.7L280.2,173.7z"/>
<path class="st0" d="M246.5,93.5c1.6,2.9,1.5,6.4-0.4,9.2l-27.6,40.5c5.9,1.6,11.7,4,17,7.4l21.9,13.9l20.6-50.9l-0.1,0l9.5-20
	c0.9-2,1.4-4.2,1.2-6.4l-1.9-30.3c-0.2-2.7-2.8-4.6-5.4-3.9c-4.3,1.1-7.9,4.5-9,8.8l-2.4,9.8c-0.4,1.7-2.6,2.3-3.8,1l-24.3-25.5
	c-3.5-3.7-10.1-3.2-14.1,1c-2.8,3-3.5,7-1.7,10.1L246.5,93.5z"/>
<path class="st1" d="M257.5,168.5c-0.7,0-1.5-0.2-2.1-0.6L233.4,154c-4.9-3.1-10.2-5.4-15.9-6.9c-1.3-0.3-2.3-1.3-2.7-2.5
	c-0.5-1.2-0.3-2.6,0.4-3.6l27.6-40.5c1-1.5,1.1-3.4,0.2-4.9l-20.3-35.4c-2.7-4.6-1.8-10.6,2.3-14.9c2.8-3,6.8-4.7,10.8-4.7h0
	c3.6,0,6.8,1.3,9.1,3.7l22,23.2l1.6-6.7c1.4-5.6,6-10.1,11.9-11.7c2.4-0.6,5-0.2,7,1.3c2,1.5,3.3,3.7,3.4,6.2l1.9,30.3
	c0.2,2.9-0.4,5.7-1.6,8.3l-9.1,19.3c0,0.2-0.1,0.4-0.2,0.6L261.2,166c-0.4,1.1-1.4,1.9-2.5,2.3C258.3,168.4,257.9,168.5,257.5,168.5
	z M224.9,141c4.5,1.6,8.8,3.7,12.8,6.3l17.8,11.3l18.5-45.7c0.1-0.3,0.2-0.7,0.3-1l9.5-20c0.7-1.4,0.9-2.9,0.8-4.4l-1.9-30.3
	c0,0,0-0.2-0.1-0.2c-0.1-0.1-0.2-0.1-0.3-0.1c-3,0.8-5.5,3.2-6.1,5.9l-2.4,9.8c-0.5,2.2-2.2,4-4.5,4.5c-2.2,0.6-4.5-0.1-6.1-1.7
	L239,49.8c-0.8-0.8-1.9-1.3-3.3-1.3c0,0,0,0,0,0c-1.8,0-3.7,0.8-5,2.2c-1.6,1.7-2,3.8-1.1,5.4l20.3,35.4c2.4,4.2,2.2,9.4-0.5,13.4
	L224.9,141z"/>
<path class="st2" d="M481.9,332.4c-10.3-17.8-33.3-23.9-51.2-13.6l-85.3,48.8c-6,3.4-13,4.7-19.9,3.4l-111.2-19.9l-15.5-1.8h91.3
	c20.5,0,37.2-16.6,37.2-37.2c0-6.4-5.2-11.7-11.7-11.7H210.2c-7.4,0-14.7,1.6-21.4,4.7l-69.2,31.9c-10.8,5-22.6,7.6-34.5,7.6H58.3
	v97.7h44.9L335.9,422c0.2,0,0.3,0,0.5,0l6.7-0.6c5.5-0.6,10.8-2.3,15.6-5l118.9-68.1C483.2,345.1,485.2,337.9,481.9,332.4z"/>
<path class="st0" d="M5.3,347.5h33.8v88.2H5.3L5.3,347.5z"/>
<path class="st2" d="M54.4,448H42.9c-2.1,0-3.8-1.7-3.8-3.8V340.7c0-2.1,1.7-3.8,3.8-3.8h11.5c2.1,0,3.8,1.7,3.8,3.8v103.5
	C58.3,446.3,56.6,448,54.4,448z"/>
<g>
	<path class="st1" d="M54.4,452H42.9c-4.3,0-7.8-3.5-7.8-7.8V340.7c0-4.3,3.5-7.8,7.8-7.8h11.5c4.3,0,7.8,3.5,7.8,7.8v103.5
		C62.3,448.5,58.8,452,54.4,452z M43.1,444h11.2V340.9H43.1V444z"/>
	<path class="st1" d="M39.1,439.7H5.3c-2.2,0-4-1.8-4-4v-88.2c0-2.2,1.8-4,4-4h33.8c2.2,0,4,1.8,4,4v88.2
		C43.1,437.9,41.3,439.7,39.1,439.7z M9.3,431.7h25.8v-80.2H9.3V431.7z"/>
	<path class="st1" d="M103.1,446.4H58.3c-2.2,0-4-1.8-4-4v-97.7c0-2.2,1.8-4,4-4H85c11.3,0,22.6-2.5,32.8-7.2l69.2-31.9
		c7.2-3.3,15.2-5.1,23.1-5.1h105.5c8.6,0,15.7,7,15.7,15.7c0,22.7-18.5,41.1-41.1,41.1h-40.6l76.7,13.7c5.9,1,12,0,17.2-3l85.2-48.8
		c19.8-11.3,45.2-4.6,56.6,15.1c2.1,3.6,2.7,7.8,1.6,11.9c-1.1,4.1-3.7,7.5-7.4,9.5l-118.9,68.1c-5.3,3-11.1,4.9-17.2,5.5l-7.3,0.6
		l-232.7,20.4C103.4,446.4,103.2,446.4,103.1,446.4z M62.3,438.4H103L336.1,418l6.7-0.5c4.9-0.5,9.6-2,14-4.5l118.9-68.1
		c1.8-1,3.1-2.7,3.6-4.7c0.5-2,0.3-4-0.8-5.8c-9.2-15.9-29.7-21.3-45.7-12.1L347.5,371c-6.8,3.9-14.8,5.3-22.5,3.9l-111.1-19.8
		l-15.3-1.8c-2.1-0.2-3.7-2.1-3.5-4.2c0.1-2.1,1.9-3.8,4-3.8h91.3c18.3,0,33.2-14.9,33.2-33.2c0-4.2-3.4-7.7-7.7-7.7H210.2
		c-6.8,0-13.6,1.5-19.8,4.3l-69.2,31.9c-11.3,5.2-23.8,7.9-36.2,7.9H62.3V438.4z"/>
</g>
<path class="st2" d="M481.9,368.3c-10.3-17.8-33.3-23.9-51.2-13.6l-85.3,48.8c-6,3.4-13,4.7-19.9,3.4l-111.2-19.9l-15.5-1.8h91.3
	c20.5,0,37.2-16.6,37.2-37.2c0-6.4-5.2-11.7-11.7-11.7H210.2c-7.4,0-14.7,1.6-21.4,4.7l-69.2,31.9c-10.8,5-22.6,7.6-34.5,7.6H58.3
	v97.7h44.9L335.9,458c0.2,0,0.3,0,0.5,0l6.7-0.6c5.5-0.6,10.8-2.3,15.6-5l118.9-68.1C483.2,381.1,485.2,373.9,481.9,368.3z"/>
<path class="st0" d="M5.3,383.5h33.8v88.2H5.3L5.3,383.5z"/>
<path class="st2" d="M54.4,484H42.9c-2.1,0-3.8-1.7-3.8-3.8V376.7c0-2.1,1.7-3.8,3.8-3.8h11.5c2.1,0,3.8,1.7,3.8,3.8v103.5
	C58.3,482.3,56.6,484,54.4,484z"/>
<path class="st1" d="M54.4,488H42.9c-4.3,0-7.8-3.5-7.8-7.8V376.7c0-4.3,3.5-7.8,7.8-7.8h11.5c4.3,0,7.8,3.5,7.8,7.8v103.5
	C62.3,484.5,58.8,488,54.4,488z M43.1,480h11.2V376.8H43.1V480z"/>
<path class="st1" d="M39.1,475.7H5.3c-2.2,0-4-1.8-4-4v-88.2c0-2.2,1.8-4,4-4h33.8c2.2,0,4,1.8,4,4v88.2
	C43.1,473.9,41.3,475.7,39.1,475.7z M9.3,467.7h25.8v-80.2H9.3V467.7z"/>
<path class="st1" d="M103.1,482.4H58.3c-2.2,0-4-1.8-4-4v-97.7c0-2.2,1.8-4,4-4H85c11.3,0,22.6-2.5,32.8-7.2l69.2-31.9
	c7.2-3.3,15.2-5.1,23.1-5.1h105.5c8.6,0,15.7,7,15.7,15.7c0,22.7-18.5,41.1-41.1,41.1h-40.6l76.7,13.7c5.9,1,12,0,17.2-3l85.2-48.8
	c19.8-11.3,45.2-4.6,56.6,15.1c2.1,3.6,2.7,7.8,1.6,11.9c-1.1,4.1-3.7,7.5-7.4,9.5l-118.9,68.1c-5.3,3-11.1,4.9-17.2,5.5l-7.3,0.6
	l-232.7,20.4C103.4,482.4,103.2,482.4,103.1,482.4z M62.3,474.4H103L336.1,454l6.7-0.5c4.9-0.5,9.6-2,14-4.5l118.9-68.1
	c1.8-1,3.1-2.7,3.6-4.7c0.5-2,0.3-4-0.8-5.8c-9.2-15.9-29.7-21.3-45.7-12.1L347.5,407c-6.8,3.9-14.8,5.3-22.5,3.9l-111.1-19.8
	l-15.3-1.8c-2.1-0.2-3.7-2.1-3.5-4.2c0.1-2.1,1.9-3.8,4-3.8h91.3c18.3,0,33.2-14.9,33.2-33.2c0-4.2-3.4-7.7-7.7-7.7H210.2
	c-6.8,0-13.6,1.5-19.8,4.3l-69.2,31.9c-11.3,5.2-23.8,7.9-36.2,7.9H62.3V474.4z"/>
<path class="st0" d="M329.7,191.1c-14-7.8-29.6-12.3-45.8-13.2l-5.8-0.3l-42.6-27c-8.9-5.6-18.9-8.7-29-9.4c3.4-26.5-7.1-54-30.1-71
	l-19-14.1C123.8,30.9,76,37.9,50.9,71.7l-2.6,3.5c-25.1,33.8-18.2,81.5,15.6,106.7l19,14.1c18,13.4,39.9,17.7,60.3,13.7
	c1.6,4.4,4,8.6,7.2,12.2c16,17.9,34,34,53.7,47.8c3.3,1.8,6.4,4.1,9.2,6.7l10.6,10c10.3,9.7,21.7,18,34.1,24.9
	c33.4,18.6,76.6,6.8,96.4-26.3C374.2,251.7,363.1,209.7,329.7,191.1z"/>
<path class="st0" d="M195.7,80.2l-10.3,12.1c-2.8,3.4-7.8,3.8-11.2,0.9c-3.4-2.8-3.8-7.8-0.9-11.2l10.3-12.1
	c2.8-3.4,7.8-3.8,11.2-0.9C198.1,71.8,198.5,76.8,195.7,80.2z"/>
<path class="st1" d="M147.1,104.6c-2.4,3.7-7.3,4.8-11,2.4l-13.4-8.6c-3.7-2.4-4.8-7.3-2.4-11c2.4-3.7,7.3-4.8,11-2.4l13.4,8.6
	C148.4,96,149.5,100.9,147.1,104.6z"/>
<path class="st3" d="M408,4c-0.1,0.1-0.1,0.2-0.2,0.3c-5.9,9.8-14.3,17.9-24.3,23.6c-25.2,14.5-45.9,35.5-60,60.9
	c-11.1,20-17.9,42.6-19.6,65.5l-2,26.4c5.7,1.3,11.2,3.1,16.6,5.2c0.3-0.7,0.5-1.5,0.5-2.3l2.1-28.1c1.6-20.4,7.6-40.5,17.5-58.4
	c12.2-22,29.9-40.2,51.4-53.1c14.4-8.6,26.4-20.6,35-35c1-1.7,2-3.5,3-5.2L408,4L408,4z"/>
<path class="st1" d="M318.4,190c-0.5,0-1-0.1-1.5-0.3c-5.2-2.1-10.6-3.8-15.9-5c-1.9-0.4-3.2-2.2-3.1-4.2l2-26.4
	c1.8-23.4,8.7-46.6,20.1-67.1c14.5-26,35.7-47.6,61.5-62.5c9.5-5.5,17.4-13.1,22.8-22.2l0.2-0.3c0.7-1.2,2-1.9,3.4-1.9h20
	c1.4,0,2.7,0.7,3.4,2s0.7,2.7,0.1,4c-1,1.8-2,3.6-3,5.3c-8.9,14.9-21.5,27.5-36.4,36.4c-20.8,12.5-38.1,30.3-49.9,51.6
	c-9.6,17.3-15.5,37-17,56.7l-2.1,28.1c-0.1,1.1-0.3,2.2-0.8,3.4c-0.4,1-1.1,1.8-2.1,2.3C319.5,189.9,319,190,318.4,190z
	 M306.1,177.7c3.1,0.8,6.1,1.7,9.1,2.8l1.9-25.1c1.6-20.9,7.8-41.7,18-60c12.5-22.5,30.7-41.4,52.8-54.6
	C401.4,32.7,412.8,21.4,421,8h-10.8c-6.1,9.6-14.6,17.6-24.7,23.4C361,45.5,340.8,66.1,327,90.8c-10.8,19.5-17.4,41.6-19.1,63.8
	L306.1,177.7z"/>
<path class="st1" d="M292,324c-12.3,0-24.7-3-36-9.3c-12.7-7.1-24.4-15.6-34.9-25.5l-10.6-10c-2.5-2.3-5.3-4.4-8.4-6.1
	c-0.1-0.1-0.3-0.1-0.4-0.2c-19.9-14-38.2-30.3-54.4-48.4c-2.8-3.1-5-6.6-6.7-10.3c-21.2,3.2-42.9-2.1-60.1-14.9l-19-14.1
	C26,158.6,18.7,108.3,45.1,72.8l2.6-3.5c12.8-17.2,31.5-28.4,52.7-31.5c21.2-3.1,42.4,2.2,59.5,15l19,14.1c0.4,0.3,0.7,0.6,1.1,0.9
	l0.4-0.5c2.1-2.4,4.9-3.9,8.1-4.2c3.2-0.3,6.3,0.7,8.7,2.8c2.4,2.1,3.9,4.9,4.2,8.1s-0.7,6.3-2.8,8.7l-2.1,2.4
	c10.6,15.2,15.7,33.9,14.3,52.4c9.5,1.2,18.7,4.5,26.7,9.6l41.7,26.5l4.7,0.3c16.7,0.9,33.1,5.7,47.5,13.7
	c17,9.5,29.1,24.9,34.1,43.5c5.1,18.9,2.2,38.7-8,55.8C343.6,310.6,318,324,292,324z M206.2,266.2c3.6,2,6.9,4.4,9.8,7.2l10.6,10
	c10,9.4,21.2,17.6,33.3,24.4c31.5,17.5,72.3,6.4,91-24.9c9.1-15.2,11.6-32.8,7.1-49.6c-4.4-16.5-15.2-30.2-30.3-38.6
	c-13.4-7.4-28.6-11.8-44.1-12.7l-5.8-0.3c-0.7,0-1.3-0.2-1.9-0.6l-42.6-27c-8-5.1-17.4-8.1-27.1-8.8c-1.1-0.1-2.1-0.6-2.8-1.4
	c-0.7-0.9-1-2-0.9-3.1c2.4-18.8-2.8-38.2-14.2-53.2c-1.1-1.5-1.1-3.6,0.1-5l4.1-4.8c0.7-0.8,1-1.8,0.9-2.9c-0.1-1.1-0.6-2-1.4-2.7
	c-1.7-1.4-4.2-1.2-5.6,0.5l-2.9,3.5c-0.7,0.8-1.7,1.3-2.7,1.4c-1.1,0.1-2.1-0.3-2.9-0.9c-1.5-1.2-2.7-2.2-3.8-3.1l-19-14.1
	c-15.5-11.5-34.5-16.3-53.6-13.5c-19.1,2.8-36,12.9-47.5,28.3l-2.6,3.5c-23.8,32-17.2,77.3,14.8,101.1l19,14.1
	c16.3,12.1,37.1,16.9,57.1,12.9c1.9-0.4,3.9,0.7,4.5,2.6c1.4,4,3.6,7.7,6.4,10.8C169,236.8,186.8,252.6,206.2,266.2z"/>
<path class="st0" d="M349.6,291.8c-0.3,0.4-0.6,0.8-0.9,1.2C349,292.6,349.3,292.2,349.6,291.8z"/>
<path class="st0" d="M312.6,303c12.9,4.6,27.4,0.8,36-9.8c0.1-0.1,0.1-0.1,0.2-0.2c0,0,0,0,0,0c12.2-16.1,14.6-33.6,15-37.9
	c0,0,0-0.1,0-0.1c0-0.1,0-0.2,0-0.3c0,0,0-0.1,0-0.1c0-0.1,0-0.1,0-0.2c0,0,0-0.1,0-0.1c0,0,0-0.1,0-0.1c0,0,0-0.1,0-0.1l16.6-36.4
	c1.6-3.4,4.6-5.7,8.1-6l54-4.2c4.8-0.4,8.5-4.3,9.1-9.6l5-44.2c0.7-6.3-3.4-12.3-9.2-13.2c-3.4-0.5-6.7,0.9-8.9,3.7l-18.1,23.2
	c-2.4,3.1-6.3,4.5-10,3.4l-43.8-12c-0.3-0.1-0.7-0.2-1.1-0.2c-17.2-2.8-27.7,8.8-27.7,8.8l-65.2,72.3c-0.2,0.3-0.5,0.5-0.7,0.7
	l-0.4,0.4c-3.3,3-4.5,8-3,12.6l11.4,34.2c0.9,2.7,3,4.8,5.7,5.8L312.6,303z"/>
<path class="st1" d="M348.7,297c-0.9,0-1.7-0.3-2.5-0.8c-1.7-1.3-2-3.8-0.7-5.6l0.1-0.2c0.1-0.1,0.2-0.2,0.3-0.4c0,0,0,0,0-0.1
	c0.1-0.2,0.3-0.4,0.4-0.6c1.3-1.7,3.8-2.1,5.6-0.7c1.7,1.3,2.1,3.8,0.8,5.5c-0.2,0.2-0.3,0.4-0.5,0.6c-0.2,0.2-0.4,0.5-0.5,0.7
	C351,296.4,349.9,297,348.7,297z"/>
<path class="st1" d="M329.4,313.7c-1.4,0-2.7-0.7-3.4-1.9c-1.1-1.9-0.5-4.3,1.4-5.5l0.8-0.5c6.6-4.1,12.5-9.2,17.4-15.3
	c11.6-15.3,13.9-32.5,14.2-35.8l4,0.1l-4-0.4l4,0.1l-4-0.3c0,0,0-0.2,0-0.2l0-0.3c0-0.4,0.2-0.9,0.3-1.3l16.6-36.4
	c2.2-4.7,6.6-7.9,11.5-8.3l54-4.2c2.8-0.2,5.1-2.7,5.5-6l5-44.2c0.5-4.2-2.2-8.2-5.8-8.8c-2-0.3-3.9,0.5-5.2,2.2l-18.1,23.2
	c-3.5,4.4-8.9,6.3-14.3,4.8l-44.1-12.1c-14.9-2.6-24,7.1-24.4,7.5l-65.1,72.3c-0.3,0.4-0.7,0.7-1,1c-1.6,1.5-4.2,1.4-5.6-0.3
	c-1.5-1.6-1.3-4.2,0.3-5.6c0.2-0.1,0.3-0.3,0.4-0.5l65.2-72.3c0.1-0.1,12.1-13.6,31.9-10c0.1,0,0.2,0,0.3,0.1l44.3,12.2
	c2.2,0.6,4.4-0.2,5.8-2l18.1-23.2c3.1-4,7.8-5.9,12.7-5.2c7.9,1.2,13.6,9.1,12.6,17.6l-5,44.2c-0.8,7.2-6.1,12.6-12.8,13.1l-54,4.2
	c-2.1,0.2-3.9,1.5-4.8,3.6l-16.3,35.8h0c0,0,0,0.2,0,0.2c-0.5,5.2-3.2,23.3-15.8,40c-5.5,6.9-12.1,12.7-19.5,17.2l-0.9,0.5
	C330.8,313.5,330.1,313.7,329.4,313.7z M363.8,254.7l1.9,0.2l-0.3-0.1L363.8,254.7z"/>
<path class="st0" d="M295.5,74.6l-3.3,9.6c-0.6,1.7-2.8,2-3.9,0.6l-21.7-27.7c-3.1-4-9.8-4.2-14.1-0.4c-3.1,2.7-4.1,6.7-2.7,9.9
	l16.9,37.1c1.4,3,0.9,6.5-1.2,9.1l-60,72.3c-0.1,0.1-0.2,0.2-0.3,0.3l-16.2,12.8c-9.4,7.4-12.5,20.3-7.6,31.1
	c5.9,13,21.3,18.8,34.4,12.9l8.1-3.7c12.1-5.5,22-14.9,28.1-26.7l44.3-85.1l-0.1-0.1l11.3-19.1c1.1-1.9,1.7-4,1.8-6.2l0.9-30.3
	c0.1-2.7-2.3-4.8-5-4.4C301,67.4,297,70.4,295.5,74.6z"/>
<path class="st1" d="M205.1,248.6c-3.5,0-7.1-0.6-10.5-1.9c-7.5-2.8-13.4-8.4-16.8-15.6c-5.7-12.6-2.1-27.4,8.7-35.9l16-12.6
	l59.8-72.1c1.1-1.4,1.4-3.3,0.7-4.9l-16.9-37.2c-2.2-4.9-0.7-10.7,3.7-14.6c3.1-2.7,7.2-4.1,11.2-3.7c3.6,0.3,6.6,2,8.7,4.6
	l19.7,25.1l2.3-6.5c1.9-5.4,6.9-9.5,12.9-10.5c2.5-0.4,4.9,0.3,6.8,1.9c1.9,1.6,2.9,4,2.8,6.5l-0.9,30.3c-0.1,2.9-0.9,5.7-2.4,8.2
	l-10.9,18.4c-0.1,0.2-0.1,0.4-0.2,0.5l-44.3,85.1c-6.5,12.5-17.2,22.6-30,28.5l-8.1,3.7C213.6,247.7,209.4,248.6,205.1,248.6z
	 M259.7,58c-1.6,0-3.3,0.6-4.6,1.8c-1.7,1.5-2.4,3.6-1.7,5.2l16.9,37.1c2,4.4,1.3,9.6-1.8,13.3l-60,72.3c-0.3,0.3-0.6,0.6-0.9,0.9
	l-16.2,12.8c-8,6.3-10.6,17.1-6.4,26.3c5,11,18.1,15.9,29.1,10.9l8.1-3.7c11.2-5.1,20.5-14,26.2-24.9l43.9-84.4
	c0.1-0.3,0.2-0.6,0.4-0.9l11.3-19.1c0.8-1.3,1.2-2.8,1.3-4.3l0.9-30.3c0,0,0-0.2-0.1-0.3c-0.1-0.1-0.2-0.1-0.3-0.1
	c-3.1,0.5-5.7,2.6-6.7,5.3l-3.3,9.6c-0.7,2.2-2.6,3.7-4.8,4.1c-2.3,0.4-4.5-0.5-5.9-2.3l-21.7-27.7c-0.7-0.9-1.8-1.4-3.2-1.6
	C260.1,58,259.9,58,259.7,58z"/>
</svg>
