<?xml version="1.0" encoding="utf-8"?>
<!-- Generator: Adobe Illustrator 23.0.3, SVG Export Plug-In . SVG Version: 6.00 Build 0)  -->
<svg version="1.1" id="Layer_1" xmlns="http://www.w3.org/2000/svg" xmlns:xlink="http://www.w3.org/1999/xlink" x="0px" y="0px"
	 viewBox="0 0 512 458" style="enable-background:new 0 0 512 458;" xml:space="preserve">
<style type="text/css">
	.st0{fill:#E6E7E8;}
	.st1{fill:#D4FBFF;}
	.st2{fill:#FA759E;}
	.st3{fill:#FFD7E5;}
	.st4{fill:#6DC9F7;}
	.st5{fill:#FFFFFF;}
	.st6{fill:#3A2C60;}
</style>
<path class="st0" d="M431.5,50h-19.9l-1.4-4.6c-0.5-1.6-1.5-2.9-2.7-3.8C407,34,400.7,28,393,28c-8,0-14.5,6.5-14.5,14.5V50h-59.3
	l-1.4-4.6c-0.5-1.6-1.5-2.9-2.7-3.8C314.6,34,308.3,28,300.6,28c-8,0-14.5,6.5-14.5,14.5V50h-59.3l-1.4-4.6
	c-0.5-1.6-1.5-2.9-2.7-3.8c-0.5-7.6-6.7-13.7-14.4-13.7c-8,0-14.5,6.5-14.5,14.5V50h-59.3l-1.4-4.6c-0.5-1.6-1.5-2.9-2.7-3.8
	c-0.5-7.6-6.7-13.7-14.4-13.7c-8,0-14.5,6.5-14.5,14.5V50h-3.5c-36.1,0-65.5,29.4-65.5,65.5v264.3c0,2.4,1.9,4.3,4.3,4.3h26.9v41
	c0,11.1,9.1,20.2,20.2,20.2h227.5c11.1,0,20.2-9.1,20.2-20.2v-41h25.3v38.5h-9c-6.2,0-11.3,5.1-11.3,11.3c0,6.2,5.1,11.3,11.3,11.3
	h133.1c6.2,0,11.3-5.1,11.3-11.3s-5.1-11.3-11.3-11.3h-9v-38.5h21c2.4,0,4.3-1.9,4.3-4.3V115.5C497,79.4,467.6,50,431.5,50L431.5,50
	z M387.1,42.5c0-3.3,2.7-5.9,5.9-5.9c3,0,5.5,2.3,5.8,5.2c-1.2,0.9-2.1,2.2-2.6,3.7l-1.4,4.6h-7.8V42.5z M294.7,42.5
	c0-3.3,2.7-5.9,5.9-5.9c3,0,5.5,2.3,5.8,5.2c-1.2,0.9-2.1,2.2-2.6,3.7l-1.4,4.6h-7.8L294.7,42.5L294.7,42.5z M202.3,42.5
	c0-3.3,2.7-5.9,5.9-5.9c3,0,5.5,2.3,5.8,5.2c-1.2,0.9-2.1,2.2-2.6,3.7L210,50h-7.8L202.3,42.5z M109.8,42.5c0-3.3,2.7-5.9,5.9-5.9
	c3,0,5.5,2.3,5.8,5.2c-1.2,0.9-2.1,2.2-2.6,3.7l-1.4,4.6h-7.8V42.5z"/>
<path class="st0" d="M387.1,42.5c0-3.3,2.7-5.9,5.9-5.9c3,0,5.5,2.3,5.8,5.2c-1.2,0.9-2.1,2.2-2.6,3.7l-1.4,4.6h-7.8L387.1,42.5
	L387.1,42.5z M294.7,42.5c0-3.3,2.7-5.9,5.9-5.9c3,0,5.5,2.3,5.8,5.2c-1.2,0.9-2.1,2.2-2.6,3.7l-1.4,4.6h-7.8L294.7,42.5L294.7,42.5
	z M202.3,42.5c0-3.3,2.7-5.9,5.9-5.9c3,0,5.5,2.3,5.8,5.2c-1.2,0.9-2.1,2.2-2.6,3.7L210,50h-7.8L202.3,42.5z M109.8,42.5
	c0-3.3,2.7-5.9,5.9-5.9c3,0,5.5,2.3,5.8,5.2c-1.2,0.9-2.1,2.2-2.6,3.7l-1.4,4.6h-7.8V42.5z"/>
<path class="st1" d="M414.3,37.1h-19.7l2.4,7.9c1.4,4.7-2.1,9.4-7,9.4h-8.2c-4.9,0-8.4-4.7-7-9.4l2.4-7.9h-75.1l2.4,7.9
	c1.4,4.7-2.1,9.4-7,9.4h-8.2c-4.9,0-8.4-4.7-7-9.4l2.4-7.9h-75.1l2.4,7.9c1.4,4.7-2.1,9.4-7,9.4H197c-4.9,0-8.4-4.7-7-9.4l2.4-7.9
	h-75.1l2.4,7.9c1.4,4.7-2.1,9.4-7,9.4h-8.2c-4.9,0-8.4-4.7-7-9.4l2.4-7.9H80.5c-33.8,0-61.2,27.4-61.2,61.2v264.3h26.9v-75.7
	c-6.1-0.6-10.9-5.8-10.9-12.1v-18.7c0-6.7,5.5-12.2,12.2-12.2h83.2v-7.9c0-27.3,22.2-49.5,49.5-49.5s49.5,22.2,49.5,49.5v7.9h83.2
	c6.7,0,12.2,5.5,12.2,12.2v18.7c0,6.3-4.8,11.4-10.9,12.1v75.7h25.3V118.7c-5.6-0.4-10-5-10-10.7v-1c0-6,4.9-10.8,10.8-10.8h113.5
	c6,0,10.8,4.9,10.8,10.8v1c0,5.7-4.4,10.3-10,10.7v243.9h21V98.3C475.5,64.5,448.1,37.1,414.3,37.1L414.3,37.1z M180.1,183.7
	c-21.1,0-38.3-17.2-38.3-38.3S159,107,180.1,107s38.3,17.2,38.3,38.3S201.2,183.7,180.1,183.7z"/>
<g>
	<path class="st2" d="M119.8,45l-4.1-13.4c-0.9-3.1-3.8-5.1-7-5.1c-3.2,0-6,2.1-7,5.1L97.6,45c-1.4,4.7,2.1,9.4,7,9.4h8.2
		C117.7,54.4,121.2,49.6,119.8,45z"/>
	<path class="st2" d="M212.2,45l-4.1-13.4c-0.9-3.1-3.8-5.1-7-5.1s-6,2.1-7,5.1L190,45c-1.4,4.7,2.1,9.4,7,9.4h8.2
		C210.2,54.4,213.7,49.6,212.2,45z"/>
	<path class="st2" d="M304.6,45l-4.1-13.4c-0.9-3.1-3.8-5.1-7-5.1s-6,2.1-7,5.1L282.5,45c-1.4,4.7,2.1,9.4,7,9.4h8.2
		C302.6,54.4,306.1,49.6,304.6,45z"/>
	<path class="st2" d="M397.1,45l-4.1-13.4c-0.9-3.1-3.8-5.1-7-5.1s-6,2.1-7,5.1L374.9,45c-1.4,4.7,2.1,9.4,7,9.4h8.2
		C395,54.4,398.5,49.6,397.1,45L397.1,45z"/>
</g>
<path class="st3" d="M81.7,217.4h52.6c6.1-14.8,19.1-26,34.9-29.6v-5.8c-15.8-4.7-27.4-19.4-27.4-36.7s11.6-32,27.4-36.7v-3.8
	c0-10.3-8.4-18.7-18.7-18.7H81.7c-10.3,0-18.7,8.4-18.7,18.7v93.9C63,209,71.4,217.4,81.7,217.4L81.7,217.4z"/>
<path class="st3" d="M218.4,145.4c0,17.3-11.6,32-27.4,36.7v5.8c15.9,3.6,28.9,14.8,34.9,29.6h52.6c10.3,0,18.7-8.4,18.7-18.7v-93.9
	c0-10.3-8.4-18.7-18.7-18.7h-68.8c-10.3,0-18.7,8.4-18.7,18.7v3.8C206.9,113.3,218.4,128,218.4,145.4L218.4,145.4z"/>
<circle class="st4" cx="180.1" cy="145.4" r="34"/>
<path class="st4" d="M180.1,190.9c-25,0-45.2,20.3-45.2,45.2v12.1h90.5v-12.1C225.4,211.1,205.1,190.9,180.1,190.9L180.1,190.9z"/>
<path class="st2" d="M50.5,282.8v125.1c0,8.8,7.1,15.9,15.9,15.9h227.5c8.8,0,15.9-7.1,15.9-15.9V282.8H50.5z"/>
<path class="st5" d="M312.8,248.3H47.4c-4.4,0-7.9,3.5-7.9,7.9v18.6c0,4.4,3.5,7.9,7.9,7.9h265.4c4.4,0,7.9-3.5,7.9-7.9v-18.6
	C320.7,251.9,317.2,248.3,312.8,248.3z"/>
<path class="st3" d="M320.7,269.1v5.8c0,4.3-3.5,7.9-7.9,7.9H47.4c-4.3,0-7.9-3.5-7.9-7.9v-5.8c0-4.3,3.5-7.9,7.9-7.9h265.4
	C317.2,261.2,320.7,264.8,320.7,269.1z"/>
<path class="st4" d="M343.6,114.5h106.5v295.2H343.6V114.5z"/>
<path class="st2" d="M463.4,409.7H330.3c-3.9,0-7,3.1-7,7c0,3.9,3.1,7,7,7h133.1c3.9,0,7-3.1,7-7
	C470.5,412.8,467.3,409.7,463.4,409.7z"/>
<path class="st2" d="M453.7,100.4H340.1c-3.6,0-6.5,2.9-6.5,6.5v1c0,3.6,2.9,6.5,6.5,6.5h113.5c3.6,0,6.5-2.9,6.5-6.5v-1
	C460.2,103.3,457.3,100.4,453.7,100.4z"/>
<path class="st6" d="M414.3,32.8h-16.5l-0.8-2.5c-1.1-3.5-3.7-6.2-7-7.4c-1.1-6.9-7.1-12.1-14.3-12.1c-8,0-14.5,6.5-14.5,14.5v7.5
	h-55.9l-0.8-2.5c-1.1-3.5-3.7-6.2-7-7.4c-1.1-6.9-7.1-12.1-14.3-12.1c-8,0-14.5,6.5-14.5,14.5v7.5H213l-0.8-2.5
	c-1.1-3.5-3.7-6.2-7-7.4c-1.1-6.9-7.1-12.1-14.3-12.1c-8,0-14.5,6.5-14.5,14.5v7.5h-55.9l-0.8-2.5c-1.1-3.5-3.7-6.2-7-7.4
	c-1.1-6.9-7.1-12.1-14.3-12.1c-8,0-14.5,6.5-14.5,14.5v7.5h-3.5C44.4,32.8,15,62.2,15,98.3v264.3c0,2.4,1.9,4.3,4.3,4.3h26.9v41
	c0,11.1,9.1,20.2,20.2,20.2h82.1c2.4,0,4.3-1.9,4.3-4.3s-1.9-4.3-4.3-4.3H66.4c-6.4,0-11.6-5.2-11.6-11.6V287.1h250.7v120.8
	c0,6.4-5.2,11.6-11.6,11.6h-68.5c-2.4,0-4.3,1.9-4.3,4.3s1.9,4.3,4.3,4.3h68.5c11.1,0,20.2-9.1,20.2-20.2v-41h25.3v38.5h-9
	c-6.2,0-11.3,5.1-11.3,11.3c0,6.2,5.1,11.3,11.3,11.3h133.1c6.2,0,11.3-5.1,11.3-11.3c0-6.2-5.1-11.3-11.3-11.3h-9v-38.5h21
	c2.4,0,4.3-1.9,4.3-4.3V98.3C479.8,62.2,450.4,32.8,414.3,32.8L414.3,32.8z M392.5,48.9c-0.6,0.8-1.4,1.2-2.4,1.2h-8.2
	c-1,0-1.8-0.4-2.4-1.2s-0.7-1.7-0.5-2.6l4.1-13.4c0.4-1.3,1.5-2.1,2.8-2.1s2.5,0.8,2.8,2.1l4.1,13.4
	C393.2,47.1,393.1,48.1,392.5,48.9L392.5,48.9z M369.9,25.3c0-3.3,2.7-5.9,5.9-5.9c2.5,0,4.6,1.6,5.5,3.8c-3,1.3-5.4,3.9-6.4,7.2
	l-0.8,2.5h-4.2L369.9,25.3L369.9,25.3z M300.1,48.9c-0.6,0.8-1.4,1.2-2.4,1.2h-8.2c-1,0-1.8-0.4-2.4-1.2c-0.6-0.8-0.7-1.7-0.5-2.7
	l4.1-13.4c0.4-1.3,1.5-2.1,2.8-2.1c1.3,0,2.5,0.8,2.8,2.1l4.1,13.4C300.8,47.1,300.6,48.1,300.1,48.9L300.1,48.9z M277.5,25.3
	c0-3.3,2.7-5.9,5.9-5.9c2.5,0,4.6,1.6,5.5,3.8c-3,1.3-5.4,3.9-6.4,7.2l-0.8,2.5h-4.2V25.3z M207.7,48.9c-0.6,0.8-1.4,1.2-2.4,1.2
	H197c-1,0-1.8-0.4-2.4-1.2c-0.6-0.8-0.7-1.7-0.5-2.7l4.1-13.4c0.4-1.3,1.5-2.1,2.8-2.1s2.5,0.8,2.8,2.1l4.1,13.4
	C208.4,47.1,208.2,48.1,207.7,48.9z M185,25.3c0-3.3,2.7-5.9,5.9-5.9c2.5,0,4.6,1.6,5.5,3.8c-3,1.3-5.4,3.9-6.4,7.2l-0.8,2.5H185
	V25.3z M115.2,48.9c-0.6,0.8-1.4,1.2-2.4,1.2h-8.2c-1,0-1.8-0.4-2.4-1.2s-0.7-1.7-0.5-2.6l4.1-13.4c0.4-1.3,1.5-2.1,2.8-2.1
	c1.3,0,2.5,0.8,2.8,2.1l4.1,13.4C116,47.1,115.8,48.1,115.2,48.9L115.2,48.9z M92.6,25.3c0-3.3,2.7-5.9,5.9-5.9
	c2.5,0,4.6,1.6,5.5,3.8c-3,1.3-5.4,3.9-6.4,7.2l-0.8,2.5h-4.3L92.6,25.3z M50.5,278.4h-3.1c-2,0-3.6-1.6-3.6-3.6v-18.7
	c0-2,1.6-3.6,3.6-3.6h265.4c2,0,3.6,1.6,3.6,3.6v18.7c0,2-1.6,3.6-3.6,3.6h-3.1H50.5z M139.2,243.9v-7.8c0-22.6,18.4-40.9,40.9-40.9
	s40.9,18.4,40.9,40.9v7.8H139.2z M453.7,110.2H340.1c-1.2,0-2.2-1-2.2-2.2v-1c0-1.2,1-2.2,2.2-2.2h113.5c1.2,0,2.2,1,2.2,2.2v1
	C455.9,109.2,454.9,110.2,453.7,110.2L453.7,110.2z M466.2,416.7c0,1.5-1.2,2.7-2.7,2.7H330.3c-1.5,0-2.7-1.2-2.7-2.7
	c0-1.5,1.2-2.7,2.7-2.7h133.1C464.9,414,466.2,415.2,466.2,416.7z M347.9,405.4V118.8h97.9v286.6L347.9,405.4L347.9,405.4z
	 M471.2,358.3h-16.7V118.7c5.6-0.4,10-5,10-10.7v-1c0-6-4.9-10.8-10.8-10.8H340.1c-6,0-10.8,4.9-10.8,10.8v1c0,5.7,4.4,10.3,10,10.7
	v239.6H314v-71.4c6.1-0.6,10.9-5.8,10.9-12.1v-18.7c0-6.7-5.5-12.2-12.2-12.2h-83.2v-7.9c0-27.3-22.2-49.5-49.5-49.5
	s-49.5,22.2-49.5,49.5v7.9H47.4c-6.7,0-12.2,5.5-12.2,12.2v18.7c0,6.3,4.8,11.4,10.9,12.1v71.4H23.6v-260
	c0-31.4,25.5-56.9,56.9-56.9h13.7l-0.7,2.3c-1.1,3.6-0.5,7.3,1.8,10.3c2.2,3,5.6,4.7,9.3,4.7h8.2c3.7,0,7.1-1.7,9.3-4.7
	c2.2-3,2.8-6.7,1.8-10.3l-0.7-2.3h63.4l-0.7,2.3c-1.1,3.6-0.5,7.3,1.8,10.3c2.2,3,5.6,4.7,9.3,4.7h8.2c3.7,0,7.1-1.7,9.3-4.7
	c2.2-3,2.8-6.7,1.8-10.3l-0.7-2.3h63.4l-0.7,2.3c-1.1,3.6-0.4,7.3,1.8,10.3c2.2,3,5.6,4.7,9.3,4.7h8.2c3.7,0,7.1-1.7,9.3-4.7
	s2.8-6.7,1.8-10.3l-0.7-2.3h63.4l-0.7,2.3c-1.1,3.6-0.5,7.3,1.8,10.3c2.2,3,5.6,4.7,9.3,4.7h8.2c3.7,0,7.1-1.7,9.3-4.7
	c2.2-3,2.8-6.7,1.8-10.3l-0.7-2.3h13.8c31.4,0,56.9,25.5,56.9,56.9L471.2,358.3z"/>
<path class="st6" d="M180.1,107c-21.1,0-38.3,17.2-38.3,38.3s17.2,38.3,38.3,38.3s38.3-17.2,38.3-38.3S201.2,107,180.1,107
	L180.1,107z M180.1,175.1c-16.4,0-29.7-13.3-29.7-29.7s13.3-29.7,29.7-29.7c16.4,0,29.7,13.3,29.7,29.7S196.5,175.1,180.1,175.1
	L180.1,175.1z"/>
<path class="st6" d="M201.2,419.4h-27.6c-2.4,0-4.3,1.9-4.3,4.3s1.9,4.3,4.3,4.3h27.6c2.4,0,4.3-1.9,4.3-4.3
	S203.6,419.4,201.2,419.4z"/>
<path class="st5" d="M424.5,164.3h-54.3c-2.4,0-4.3-1.9-4.3-4.3s1.9-4.3,4.3-4.3h54.3c2.4,0,4.3,1.9,4.3,4.3
	S426.9,164.3,424.5,164.3z"/>
<path class="st5" d="M424.5,182.6h-54.3c-2.4,0-4.3-1.9-4.3-4.3s1.9-4.3,4.3-4.3h54.3c2.4,0,4.3,1.9,4.3,4.3
	S426.9,182.6,424.5,182.6z"/>
<path class="st5" d="M424.5,200.9h-54.3c-2.4,0-4.3-1.9-4.3-4.3s1.9-4.3,4.3-4.3h54.3c2.4,0,4.3,1.9,4.3,4.3
	S426.9,200.9,424.5,200.9z"/>
<path class="st3" d="M415.7,217.6h-36.6c-2.9,0-5.2,2.3-5.2,5.2v47.7c0,2.9,2.3,5.2,5.2,5.2h36.6c2.9,0,5.2-2.3,5.2-5.2v-47.7
	C420.9,220,418.5,217.6,415.7,217.6L415.7,217.6z"/>
</svg>
