<svg id="Capa_1" enable-background="new 0 0 512 512" height="512" viewBox="0 0 512 512" width="512" xmlns="http://www.w3.org/2000/svg" xmlns:xlink="http://www.w3.org/1999/xlink"><linearGradient id="SVGID_1_" gradientUnits="userSpaceOnUse" x1="432.823" x2="96.823" y1="520.819" y2="20.819"><stop offset=".008" stop-color="#ffe8dc" stop-opacity="0"/><stop offset=".9977" stop-color="#ffc599"/></linearGradient><g><path d="m512 192.135c0-77.209-114.615-139.799-256-139.799s-256 62.59-256 139.799c0 12.48 2.999 24.577 8.62 36.089 10.007 20.491 12.502 43.828 7.537 66.086-2.036 9.127-3.179 18.59-3.333 28.294-1.235 77.812 61.961 142.061 139.782 142.06 58.443 0 108.503-35.865 129.385-86.785 11.468-27.964 35.565-48.919 65.155-55.077 96.38-20.057 164.854-70.992 164.854-130.667z" fill="url(#SVGID_1_)"/><g><g><path d="" fill="#8383ff"/><g><path d="m421.752 196.546c-1.279 0-2.56-.488-3.535-1.464l-11-11c-1.953-1.953-1.953-5.119 0-7.071l11-11c1.951-1.952 5.119-1.952 7.07 0l11 11c1.953 1.953 1.953 5.119 0 7.071l-11 11c-.975.976-2.256 1.464-3.535 1.464zm-3.929-16 3.929 3.929 3.929-3.929-3.929-3.929z" fill="#ff9d33"/></g><g><path d="m421.752 343.957c-1.279 0-2.56-.488-3.535-1.464l-11-11c-1.953-1.953-1.953-5.119 0-7.071l11-11c1.951-1.952 5.119-1.952 7.07 0l11 11c1.953 1.953 1.953 5.119 0 7.071l-11 11c-.975.976-2.256 1.464-3.535 1.464zm-3.929-16 3.929 3.929 3.929-3.929-3.929-3.929z" fill="#6c6cff"/></g><g><path d="m71.528 83.457c-1.326 0-2.598-.527-3.535-1.464l-11.293-11.292c-.938-.938-1.465-2.209-1.465-3.536s.526-2.598 1.465-3.536l11.293-11.292c1.951-1.952 5.119-1.952 7.07 0l11.292 11.292c1.953 1.953 1.953 5.119 0 7.071l-11.291 11.293c-.938.938-2.209 1.464-3.536 1.464zm-4.221-16.292 4.222 4.221 4.221-4.221-4.221-4.221z" fill="#ff9d33"/></g><g><path d="m443.752 390.998c-7.175 0-13.012-5.837-13.012-13.012s5.837-13.012 13.012-13.012 13.013 5.837 13.013 13.012-5.838 13.012-13.013 13.012zm0-16.024c-1.661 0-3.012 1.351-3.012 3.012s1.351 3.012 3.012 3.012 3.013-1.351 3.013-3.012-1.352-3.012-3.013-3.012z" fill="#ff6c6c"/></g><g><path d="m86.517 252.638c-7.175 0-13.013-5.837-13.013-13.012s5.838-13.012 13.013-13.012 13.012 5.837 13.012 13.012-5.838 13.012-13.012 13.012zm0-16.023c-1.661 0-3.013 1.351-3.013 3.012s1.352 3.012 3.013 3.012 3.012-1.351 3.012-3.012-1.351-3.012-3.012-3.012z" fill="#ff6c6c"/></g><g><g><path d="m136.132 468.171c0 11.5 9.33 20.83 20.84 20.83h206.12c11.51 0 20.84-9.33 20.84-20.83v-392.34c0-11.5-9.33-20.83-20.84-20.83h-206.12c-11.51 0-20.84 9.33-20.84 20.83z" fill="#00c" opacity=".1"/><path d="m383.932 48.83v392.34c0 11.5-9.33 20.83-20.84 20.83h-206.12c-11.51 0-20.84-9.33-20.84-20.83v-392.34c0-11.5 9.33-20.83 20.84-20.83h206.12c11.511 0 20.84 9.33 20.84 20.83z" fill="#b3b3ff"/><path d="m327.579 56.006 8.453-28.007h-152l8.453 28.007c1.274 4.222 5.164 7.11 9.573 7.11h115.946c4.411 0 8.301-2.889 9.575-7.11z" fill="#ffab66"/><g fill="#00c"><path d="m383.932 271.5c-2.762 0-5 2.239-5 5v164.667c0 8.732-7.104 15.835-15.836 15.835h-206.127c-8.731 0-15.835-7.104-15.835-15.835v-247.334c0-2.761-2.238-5-5-5s-5 2.239-5 5v247.334c0 14.246 11.59 25.835 25.835 25.835h206.127c14.246 0 25.836-11.59 25.836-25.835v-164.667c0-2.761-2.239-5-5-5z"/><path d="m363.096 22.999h-206.127c-14.245 0-25.835 11.59-25.835 25.835v110.999c0 2.761 2.238 5 5 5s5-2.239 5-5v-110.999c0-8.731 7.104-15.835 15.835-15.835h23.349l7.38 24.452c1.926 6.379 7.697 10.666 14.361 10.666h115.946c6.663 0 12.435-4.286 14.36-10.666l7.38-24.452h23.349c8.732 0 15.836 7.104 15.836 15.835v193.666c0 2.761 2.238 5 5 5s5-2.239 5-5v-193.666c.002-14.245-11.588-25.835-25.834-25.835zm-40.304 31.562c-.642 2.126-2.565 3.555-4.786 3.555h-115.946c-2.222 0-4.146-1.429-4.787-3.555l-6.508-21.562h138.535z"/></g></g></g><g><circle cx="216.04" cy="45.557" fill="#6c6cff" r="4.854"/></g><g><circle cx="232.366" cy="45.557" fill="#6c6cff" r="4.854"/></g><g><path d="m300.633 50.411h-37.202c-2.573 0-4.659-2.086-4.659-4.659s2.086-4.659 4.659-4.659h37.202c2.573 0 4.659 2.086 4.659 4.659s-2.085 4.659-4.659 4.659z" fill="#ff8b00"/></g><g><g><path d="m284.466 321.428c-.883 0-1.777-.234-2.588-.726-6.58-3.991-14.134-6.1-21.846-6.1s-15.266 2.109-21.844 6.1c-2.362 1.434-5.437.68-6.869-1.682-1.432-2.361-.679-5.436 1.682-6.868 8.143-4.939 17.49-7.55 27.031-7.55s18.888 2.611 27.031 7.55c2.361 1.432 3.114 4.507 1.683 6.868-.94 1.551-2.59 2.408-4.28 2.408z" fill="#ff4d4d"/></g><g><path d="m270.424 337.665c-.884 0-1.778-.234-2.589-.726-4.697-2.851-10.908-2.851-15.605 0-2.359 1.433-5.436.68-6.868-1.681s-.68-5.436 1.681-6.869c3.913-2.374 8.405-3.629 12.99-3.629s9.077 1.255 12.99 3.629c2.36 1.433 3.113 4.508 1.681 6.869-.941 1.55-2.591 2.407-4.28 2.407z" fill="#ff4d4d"/></g><g><path d="m297.456 304.344c-.884 0-1.777-.234-2.588-.726-10.492-6.364-22.538-9.728-34.836-9.728-12.297 0-24.343 3.364-34.836 9.728-2.361 1.434-5.437.679-6.868-1.682-1.432-2.361-.679-5.436 1.683-6.868 12.056-7.313 25.896-11.178 40.021-11.178 14.127 0 27.967 3.865 40.021 11.178 2.361 1.432 3.114 4.507 1.683 6.868-.94 1.551-2.589 2.408-4.28 2.408z" fill="#ff4d4d"/></g></g><g><path d="m264.692 125.44v127.2c0 2.57-2.09 4.66-4.66 4.66s-4.66-2.09-4.66-4.66v-127.2c0-2.58 2.09-4.66 4.66-4.66s4.66 2.08 4.66 4.66z" fill="#fff"/></g><g><g><path d="m181.183 128.882h-4.968c-6.252 0-11.338-5.086-11.338-11.338v-15.334c0-6.252 5.086-11.338 11.338-11.338h4.968c6.252 0 11.338 5.086 11.338 11.338v15.333c0 6.253-5.086 11.339-11.338 11.339zm-4.968-28.01c-.737 0-1.338.601-1.338 1.338v15.333c0 .738.601 1.338 1.338 1.338h4.968c.737 0 1.338-.601 1.338-1.338v-15.333c0-.738-.601-1.338-1.338-1.338z" fill="#6c6cff"/></g><g><path d="m208.032 128.882c-2.762 0-5-2.239-5-5v-23.01h-.072c-2.762 0-5-2.239-5-5s2.238-5 5-5h5.072c2.762 0 5 2.239 5 5v28.01c0 2.762-2.238 5-5 5z" fill="#6c6cff"/></g></g></g><path d="m349.594 432.021h-179.123c-2.761 0-5-2.239-5-5v-36.023c0-2.761 2.239-5 5-5h179.123c2.761 0 5 2.239 5 5v36.023c0 2.761-2.238 5-5 5z" fill="#9494ff"/><g><path d="m212.944 407.122h-27.024c-2.761 0-5-2.239-5-5v-27.024c0-2.761 2.239-5 5-5h27.024c2.761 0 5 2.239 5 5v27.024c0 2.761-2.239 5-5 5z" fill="#ff4d4d"/><path d="m273.545 407.122h-27.025c-2.761 0-5-2.239-5-5v-27.024c0-2.761 2.239-5 5-5h27.024c2.761 0 5 2.239 5 5v27.024c.001 2.761-2.238 5-4.999 5z" fill="#ffab66"/><path d="m334.145 407.122h-27.024c-2.761 0-5-2.239-5-5v-27.024c0-2.761 2.239-5 5-5h27.024c2.761 0 5 2.239 5 5v27.024c0 2.761-2.238 5-5 5z" fill="#fff"/></g></g></g></svg>